%
M48
M72
T01C0.02362
T02C0.02756
T03C0.03150
T04C0.03200
T05C0.03937
T06C0.04000
%
T01
X31800Y131800
X26800Y141800
X31800Y146800
X26800Y156800
X71800Y151800
X81800Y141800
X71800Y131800
X81800Y161800
X164300Y101800
X184300Y111800
X176800Y44300
T02
X173178Y20501
X177902Y23650
X173178Y26800
X177902Y29950
X173178Y33099
T03
X136426Y16800
X144300Y16800
X152174Y16800
T04
X46800Y11800
X46800Y21800
X61800Y19300
X71800Y36800
X89300Y41800
X89300Y51800
X101800Y51800
X101800Y41800
X94300Y29300
X94300Y19300
X106800Y19300
X111800Y11800
X116800Y19300
X131800Y41800
X131800Y51800
X131800Y61800
X131800Y71800
X131800Y81800
X131800Y91800
X131800Y101800
X131800Y111800
X131800Y121800
X141800Y121800
X151800Y121800
X131800Y131800
X131800Y141800
X131800Y151800
X131800Y161800
X141800Y161800
X141800Y171800
X131800Y171800
X126800Y194300
X136800Y194300
X116800Y196800
X101800Y171800
X101800Y161800
X101800Y151800
X101800Y141800
X101800Y131800
X101800Y121800
X101800Y111800
X101800Y101800
X101800Y91800
X101800Y81800
X101800Y71800
X101800Y61800
X71800Y76800
X44300Y91800
X24300Y61800
X24300Y51800
X44300Y51800
X81800Y19300
X146800Y76800
X146800Y96800
X86800Y171800
X76800Y196800
X46800Y171800
T05
X193060Y41170
X193060Y12430
X160048Y16800
X128552Y16800
T06
X24300Y14300
X24300Y34300
X16800Y71800
X16800Y81800
X16800Y91800
X16800Y101800
X16800Y111800
X16800Y121800
X16800Y131800
X16800Y141800
X16800Y151800
X16800Y161800
X16800Y171800
X16800Y181800
X16800Y191800
X41800Y191800
X61800Y191800
X84300Y101800
X84300Y91800
X84300Y81800
X203800Y81800
X203800Y71800
X203800Y91800
X203800Y101800
X203800Y111800
X203800Y121800
X203800Y131800
X203800Y141800
M30
