G75*
%MOIN*%
%OFA0B0*%
%FSLAX25Y25*%
%IPPOS*%
%LPD*%
%AMOC8*
5,1,8,0,0,1.08239X$1,22.5*
%
%ADD10C,0.00000*%
%ADD11C,0.07400*%
%ADD12OC8,0.05200*%
%ADD13C,0.05200*%
%ADD14C,0.05200*%
%ADD15C,0.05937*%
%ADD16C,0.05150*%
%ADD17C,0.05937*%
%ADD18C,0.04756*%
%ADD19C,0.01600*%
%ADD20C,0.03562*%
D10*
X0011800Y0006800D02*
X0011800Y0203650D01*
X0208650Y0203650D01*
X0208650Y0006800D01*
X0011800Y0006800D01*
D11*
X0024300Y0014300D03*
X0024300Y0034300D03*
X0016800Y0071800D03*
X0016800Y0081800D03*
X0016800Y0091800D03*
X0016800Y0101800D03*
X0016800Y0111800D03*
X0016800Y0121800D03*
X0016800Y0131800D03*
X0016800Y0141800D03*
X0016800Y0151800D03*
X0016800Y0161800D03*
X0016800Y0171800D03*
X0016800Y0181800D03*
X0016800Y0191800D03*
X0041800Y0191800D03*
X0061800Y0191800D03*
X0084300Y0101800D03*
X0084300Y0091800D03*
X0084300Y0081800D03*
X0203800Y0081800D03*
X0203800Y0071800D03*
X0203800Y0091800D03*
X0203800Y0101800D03*
X0203800Y0111800D03*
X0203800Y0121800D03*
X0203800Y0131800D03*
X0203800Y0141800D03*
D12*
X0151800Y0121800D03*
X0141800Y0121800D03*
X0141800Y0161800D03*
X0141800Y0171800D03*
X0136800Y0194300D03*
X0126800Y0194300D03*
X0116800Y0196800D03*
X0086800Y0171800D03*
X0076800Y0196800D03*
X0046800Y0171800D03*
X0044300Y0091800D03*
X0071800Y0076800D03*
X0089300Y0051800D03*
X0089300Y0041800D03*
X0094300Y0029300D03*
X0094300Y0019300D03*
X0106800Y0019300D03*
X0111800Y0011800D03*
X0116800Y0019300D03*
X0071800Y0036800D03*
X0061800Y0019300D03*
X0046800Y0021800D03*
X0046800Y0011800D03*
X0044300Y0051800D03*
X0024300Y0051800D03*
X0024300Y0061800D03*
X0146800Y0076800D03*
D13*
X0146800Y0096800D03*
X0081800Y0019300D03*
D14*
X0099200Y0041800D02*
X0104400Y0041800D01*
X0104400Y0051800D02*
X0099200Y0051800D01*
X0099200Y0061800D02*
X0104400Y0061800D01*
X0104400Y0071800D02*
X0099200Y0071800D01*
X0099200Y0081800D02*
X0104400Y0081800D01*
X0104400Y0091800D02*
X0099200Y0091800D01*
X0099200Y0101800D02*
X0104400Y0101800D01*
X0104400Y0111800D02*
X0099200Y0111800D01*
X0099200Y0121800D02*
X0104400Y0121800D01*
X0104400Y0131800D02*
X0099200Y0131800D01*
X0099200Y0141800D02*
X0104400Y0141800D01*
X0104400Y0151800D02*
X0099200Y0151800D01*
X0099200Y0161800D02*
X0104400Y0161800D01*
X0104400Y0171800D02*
X0099200Y0171800D01*
X0129200Y0171800D02*
X0134400Y0171800D01*
X0134400Y0161800D02*
X0129200Y0161800D01*
X0129200Y0151800D02*
X0134400Y0151800D01*
X0134400Y0141800D02*
X0129200Y0141800D01*
X0129200Y0131800D02*
X0134400Y0131800D01*
X0134400Y0121800D02*
X0129200Y0121800D01*
X0129200Y0111800D02*
X0134400Y0111800D01*
X0134400Y0101800D02*
X0129200Y0101800D01*
X0129200Y0091800D02*
X0134400Y0091800D01*
X0134400Y0081800D02*
X0129200Y0081800D01*
X0129200Y0071800D02*
X0134400Y0071800D01*
X0134400Y0061800D02*
X0129200Y0061800D01*
X0129200Y0051800D02*
X0134400Y0051800D01*
X0134400Y0041800D02*
X0129200Y0041800D01*
D15*
X0128552Y0016800D03*
X0160048Y0016800D03*
D16*
X0152174Y0016800D03*
X0144300Y0016800D03*
X0136426Y0016800D03*
D17*
X0190091Y0012430D02*
X0196028Y0012430D01*
X0196028Y0041170D02*
X0190091Y0041170D01*
D18*
X0177902Y0029950D03*
X0173178Y0033099D03*
X0173178Y0026800D03*
X0177902Y0023650D03*
X0173178Y0020501D03*
D19*
X0161977Y0009300D01*
X0151800Y0009300D01*
X0144300Y0016800D01*
X0136426Y0016800D02*
X0131426Y0011800D01*
X0111800Y0011800D01*
X0046800Y0011800D01*
X0039300Y0036800D02*
X0024300Y0051800D01*
X0024300Y0061800D02*
X0024300Y0084300D01*
X0016800Y0091800D01*
X0044300Y0091800D01*
X0049300Y0101800D02*
X0016800Y0101800D01*
X0016800Y0111800D02*
X0101800Y0111800D01*
X0101800Y0121800D02*
X0016800Y0121800D01*
X0016800Y0131800D02*
X0031800Y0131800D01*
X0026800Y0141800D02*
X0016800Y0141800D01*
X0016800Y0151800D02*
X0071800Y0151800D01*
X0081800Y0141800D02*
X0101800Y0141800D01*
X0096800Y0146800D02*
X0101800Y0151800D01*
X0096800Y0146800D02*
X0031800Y0146800D01*
X0026800Y0156800D02*
X0096800Y0156800D01*
X0101800Y0161800D01*
X0101800Y0171800D02*
X0086800Y0171800D01*
X0061800Y0171800D01*
X0041800Y0191800D01*
X0016800Y0191800D01*
X0016800Y0181800D02*
X0026800Y0171800D01*
X0046800Y0171800D01*
X0016800Y0161800D02*
X0081800Y0161800D01*
X0071800Y0131800D02*
X0101800Y0131800D01*
X0131800Y0131800D02*
X0194300Y0131800D01*
X0203800Y0122300D01*
X0203800Y0121800D01*
X0203800Y0111800D02*
X0163800Y0071800D01*
X0131800Y0071800D01*
X0131800Y0061800D02*
X0163800Y0061800D01*
X0203800Y0101800D01*
X0203800Y0091800D02*
X0163800Y0051800D01*
X0131800Y0051800D01*
X0131800Y0041800D02*
X0163800Y0041800D01*
X0203800Y0081800D01*
X0184300Y0111800D02*
X0131800Y0111800D01*
X0131800Y0101800D02*
X0164300Y0101800D01*
X0146800Y0096800D02*
X0141800Y0091800D01*
X0131800Y0091800D01*
X0131800Y0121800D02*
X0141800Y0121800D01*
X0131800Y0141800D02*
X0194300Y0141800D01*
X0203800Y0132300D01*
X0203800Y0131800D01*
X0203800Y0141800D02*
X0203800Y0142300D01*
X0194300Y0151800D01*
X0131800Y0151800D01*
X0126800Y0194300D02*
X0119300Y0194300D01*
X0116800Y0196800D01*
X0084300Y0101800D02*
X0094300Y0091800D01*
X0101800Y0091800D01*
X0101800Y0081800D02*
X0084300Y0081800D01*
X0076800Y0071800D02*
X0071800Y0076800D01*
X0071800Y0079300D01*
X0049300Y0101800D01*
X0076800Y0071800D02*
X0101800Y0071800D01*
X0101800Y0061800D02*
X0024300Y0061800D01*
X0039300Y0036800D02*
X0071800Y0036800D01*
X0081800Y0019300D02*
X0094300Y0019300D01*
X0106800Y0019300D01*
X0111800Y0031800D02*
X0101800Y0041800D01*
X0101800Y0051800D02*
X0089300Y0051800D01*
X0111800Y0031800D02*
X0164300Y0031800D01*
X0176800Y0044300D01*
D20*
X0176800Y0044300D03*
X0164300Y0101800D03*
X0184300Y0111800D03*
X0081800Y0141800D03*
X0071800Y0151800D03*
X0081800Y0161800D03*
X0071800Y0131800D03*
X0031800Y0131800D03*
X0026800Y0141800D03*
X0031800Y0146800D03*
X0026800Y0156800D03*
M02*
