G75*
%MOIN*%
%OFA0B0*%
%FSLAX25Y25*%
%IPPOS*%
%LPD*%
%AMOC8*
5,1,8,0,0,1.08239X$1,22.5*
%
%ADD10C,0.00000*%
%ADD11C,0.07400*%
%ADD12OC8,0.05200*%
%ADD13C,0.05200*%
%ADD14C,0.05200*%
%ADD15C,0.05937*%
%ADD16C,0.05150*%
%ADD17C,0.05937*%
%ADD18C,0.04756*%
%ADD19C,0.01600*%
%ADD20C,0.03562*%
D10*
X0011800Y0006800D02*
X0011800Y0203650D01*
X0208650Y0203650D01*
X0208650Y0006800D01*
X0011800Y0006800D01*
D11*
X0024300Y0014300D03*
X0024300Y0034300D03*
X0016800Y0071800D03*
X0016800Y0081800D03*
X0016800Y0091800D03*
X0016800Y0101800D03*
X0016800Y0111800D03*
X0016800Y0121800D03*
X0016800Y0131800D03*
X0016800Y0141800D03*
X0016800Y0151800D03*
X0016800Y0161800D03*
X0016800Y0171800D03*
X0016800Y0181800D03*
X0016800Y0191800D03*
X0041800Y0191800D03*
X0061800Y0191800D03*
X0084300Y0101800D03*
X0084300Y0091800D03*
X0084300Y0081800D03*
X0203800Y0081800D03*
X0203800Y0071800D03*
X0203800Y0091800D03*
X0203800Y0101800D03*
X0203800Y0111800D03*
X0203800Y0121800D03*
X0203800Y0131800D03*
X0203800Y0141800D03*
D12*
X0151800Y0121800D03*
X0141800Y0121800D03*
X0141800Y0161800D03*
X0141800Y0171800D03*
X0136800Y0194300D03*
X0126800Y0194300D03*
X0116800Y0196800D03*
X0086800Y0171800D03*
X0076800Y0196800D03*
X0046800Y0171800D03*
X0044300Y0091800D03*
X0071800Y0076800D03*
X0089300Y0051800D03*
X0089300Y0041800D03*
X0094300Y0029300D03*
X0094300Y0019300D03*
X0106800Y0019300D03*
X0111800Y0011800D03*
X0116800Y0019300D03*
X0071800Y0036800D03*
X0061800Y0019300D03*
X0046800Y0021800D03*
X0046800Y0011800D03*
X0044300Y0051800D03*
X0024300Y0051800D03*
X0024300Y0061800D03*
X0146800Y0076800D03*
D13*
X0146800Y0096800D03*
X0081800Y0019300D03*
D14*
X0099200Y0041800D02*
X0104400Y0041800D01*
X0104400Y0051800D02*
X0099200Y0051800D01*
X0099200Y0061800D02*
X0104400Y0061800D01*
X0104400Y0071800D02*
X0099200Y0071800D01*
X0099200Y0081800D02*
X0104400Y0081800D01*
X0104400Y0091800D02*
X0099200Y0091800D01*
X0099200Y0101800D02*
X0104400Y0101800D01*
X0104400Y0111800D02*
X0099200Y0111800D01*
X0099200Y0121800D02*
X0104400Y0121800D01*
X0104400Y0131800D02*
X0099200Y0131800D01*
X0099200Y0141800D02*
X0104400Y0141800D01*
X0104400Y0151800D02*
X0099200Y0151800D01*
X0099200Y0161800D02*
X0104400Y0161800D01*
X0104400Y0171800D02*
X0099200Y0171800D01*
X0129200Y0171800D02*
X0134400Y0171800D01*
X0134400Y0161800D02*
X0129200Y0161800D01*
X0129200Y0151800D02*
X0134400Y0151800D01*
X0134400Y0141800D02*
X0129200Y0141800D01*
X0129200Y0131800D02*
X0134400Y0131800D01*
X0134400Y0121800D02*
X0129200Y0121800D01*
X0129200Y0111800D02*
X0134400Y0111800D01*
X0134400Y0101800D02*
X0129200Y0101800D01*
X0129200Y0091800D02*
X0134400Y0091800D01*
X0134400Y0081800D02*
X0129200Y0081800D01*
X0129200Y0071800D02*
X0134400Y0071800D01*
X0134400Y0061800D02*
X0129200Y0061800D01*
X0129200Y0051800D02*
X0134400Y0051800D01*
X0134400Y0041800D02*
X0129200Y0041800D01*
D15*
X0128552Y0016800D03*
X0160048Y0016800D03*
D16*
X0152174Y0016800D03*
X0144300Y0016800D03*
X0136426Y0016800D03*
D17*
X0190091Y0012430D02*
X0196028Y0012430D01*
X0196028Y0041170D02*
X0190091Y0041170D01*
D18*
X0177902Y0029950D03*
X0173178Y0033099D03*
X0173178Y0026800D03*
X0177902Y0023650D03*
X0173178Y0020501D03*
D19*
X0177408Y0019272D02*
X0176889Y0018021D01*
X0175658Y0016789D01*
X0174049Y0016123D01*
X0172307Y0016123D01*
X0170698Y0016789D01*
X0169466Y0018021D01*
X0168800Y0019630D01*
X0168800Y0021372D01*
X0169466Y0022981D01*
X0170136Y0023650D01*
X0169466Y0024320D01*
X0168863Y0025777D01*
X0162714Y0031926D01*
X0161926Y0032714D01*
X0161500Y0033743D01*
X0161500Y0099253D01*
X0161095Y0099658D01*
X0160519Y0101048D01*
X0160519Y0102552D01*
X0161095Y0103942D01*
X0162158Y0105005D01*
X0163548Y0105581D01*
X0165052Y0105581D01*
X0166442Y0105005D01*
X0167505Y0103942D01*
X0168081Y0102552D01*
X0168081Y0101048D01*
X0167505Y0099658D01*
X0167100Y0099253D01*
X0167100Y0035460D01*
X0169018Y0033542D01*
X0169103Y0034078D01*
X0169306Y0034703D01*
X0169605Y0035289D01*
X0169991Y0035821D01*
X0170456Y0036286D01*
X0170988Y0036673D01*
X0171574Y0036971D01*
X0172200Y0037174D01*
X0172849Y0037277D01*
X0173178Y0037277D01*
X0173178Y0033099D01*
X0173178Y0033099D01*
X0173178Y0037277D01*
X0173507Y0037277D01*
X0174156Y0037174D01*
X0174782Y0036971D01*
X0175102Y0036808D01*
X0175102Y0040911D01*
X0174658Y0041095D01*
X0173595Y0042158D01*
X0173019Y0043548D01*
X0173019Y0045052D01*
X0173595Y0046442D01*
X0174658Y0047505D01*
X0176048Y0048081D01*
X0177552Y0048081D01*
X0178942Y0047505D01*
X0180005Y0046442D01*
X0180581Y0045052D01*
X0180581Y0044047D01*
X0180702Y0043755D01*
X0180702Y0033341D01*
X0181500Y0032543D01*
X0181500Y0109253D01*
X0181095Y0109658D01*
X0180519Y0111048D01*
X0180519Y0112552D01*
X0181095Y0113942D01*
X0182158Y0115005D01*
X0183548Y0115581D01*
X0185052Y0115581D01*
X0186442Y0115005D01*
X0187505Y0113942D01*
X0188081Y0112552D01*
X0188081Y0111048D01*
X0187505Y0109658D01*
X0187100Y0109253D01*
X0187100Y0045205D01*
X0187277Y0045382D01*
X0189103Y0046139D01*
X0197017Y0046139D01*
X0198843Y0045382D01*
X0200240Y0043984D01*
X0200997Y0042158D01*
X0200997Y0040182D01*
X0200240Y0038356D01*
X0198843Y0036958D01*
X0197017Y0036202D01*
X0189103Y0036202D01*
X0187277Y0036958D01*
X0187100Y0037135D01*
X0187100Y0028743D01*
X0186674Y0027714D01*
X0185886Y0026926D01*
X0182280Y0023321D01*
X0182280Y0022780D01*
X0181614Y0021170D01*
X0180382Y0019939D01*
X0178773Y0019272D01*
X0177408Y0019272D01*
X0176858Y0017990D02*
X0206650Y0017990D01*
X0206650Y0019588D02*
X0179535Y0019588D01*
X0181620Y0021187D02*
X0206650Y0021187D01*
X0206650Y0022785D02*
X0182280Y0022785D01*
X0183343Y0024384D02*
X0206650Y0024384D01*
X0206650Y0025982D02*
X0184942Y0025982D01*
X0186540Y0027581D02*
X0206650Y0027581D01*
X0206650Y0029179D02*
X0187100Y0029179D01*
X0187100Y0030778D02*
X0206650Y0030778D01*
X0206650Y0032376D02*
X0187100Y0032376D01*
X0187100Y0033975D02*
X0206650Y0033975D01*
X0206650Y0035573D02*
X0187100Y0035573D01*
X0181500Y0035573D02*
X0180702Y0035573D01*
X0180702Y0033975D02*
X0181500Y0033975D01*
X0181500Y0037172D02*
X0180702Y0037172D01*
X0180702Y0038770D02*
X0181500Y0038770D01*
X0181500Y0040369D02*
X0180702Y0040369D01*
X0180702Y0041967D02*
X0181500Y0041967D01*
X0181500Y0043566D02*
X0180702Y0043566D01*
X0180535Y0045164D02*
X0181500Y0045164D01*
X0181500Y0046763D02*
X0179684Y0046763D01*
X0181500Y0048361D02*
X0167100Y0048361D01*
X0167100Y0046763D02*
X0173916Y0046763D01*
X0173065Y0045164D02*
X0167100Y0045164D01*
X0167100Y0043566D02*
X0173019Y0043566D01*
X0173785Y0041967D02*
X0167100Y0041967D01*
X0167100Y0040369D02*
X0175102Y0040369D01*
X0175102Y0038770D02*
X0167100Y0038770D01*
X0167100Y0037172D02*
X0172192Y0037172D01*
X0173178Y0037172D02*
X0173178Y0037172D01*
X0174164Y0037172D02*
X0175102Y0037172D01*
X0173178Y0035573D02*
X0173178Y0035573D01*
X0173178Y0033975D02*
X0173178Y0033975D01*
X0169811Y0035573D02*
X0167100Y0035573D01*
X0168585Y0033975D02*
X0169087Y0033975D01*
X0164300Y0034300D02*
X0164300Y0101800D01*
X0167361Y0099514D02*
X0181500Y0099514D01*
X0181500Y0101112D02*
X0168081Y0101112D01*
X0168015Y0102711D02*
X0181500Y0102711D01*
X0181500Y0104309D02*
X0167138Y0104309D01*
X0161462Y0104309D02*
X0138340Y0104309D01*
X0138300Y0104406D02*
X0137006Y0105700D01*
X0135315Y0106400D01*
X0128285Y0106400D01*
X0126594Y0105700D01*
X0125300Y0104406D01*
X0124600Y0102715D01*
X0124600Y0100885D01*
X0125300Y0099194D01*
X0126594Y0097900D01*
X0128285Y0097200D01*
X0135315Y0097200D01*
X0137006Y0097900D01*
X0138300Y0099194D01*
X0139000Y0100885D01*
X0139000Y0102715D01*
X0138300Y0104406D01*
X0139000Y0102711D02*
X0160585Y0102711D01*
X0160519Y0101112D02*
X0148410Y0101112D01*
X0147715Y0101400D02*
X0145885Y0101400D01*
X0144194Y0100700D01*
X0142900Y0099406D01*
X0142200Y0097715D01*
X0142200Y0095885D01*
X0142900Y0094194D01*
X0144194Y0092900D01*
X0145885Y0092200D01*
X0147715Y0092200D01*
X0149406Y0092900D01*
X0150700Y0094194D01*
X0151400Y0095885D01*
X0151400Y0097715D01*
X0150700Y0099406D01*
X0149406Y0100700D01*
X0147715Y0101400D01*
X0145190Y0101112D02*
X0139000Y0101112D01*
X0138432Y0099514D02*
X0143008Y0099514D01*
X0142283Y0097915D02*
X0137021Y0097915D01*
X0135516Y0096317D02*
X0142200Y0096317D01*
X0142683Y0094718D02*
X0137987Y0094718D01*
X0138300Y0094406D02*
X0137006Y0095700D01*
X0135315Y0096400D01*
X0128285Y0096400D01*
X0126594Y0095700D01*
X0125300Y0094406D01*
X0124600Y0092715D01*
X0124600Y0090885D01*
X0125300Y0089194D01*
X0126594Y0087900D01*
X0128285Y0087200D01*
X0135315Y0087200D01*
X0137006Y0087900D01*
X0138300Y0089194D01*
X0139000Y0090885D01*
X0139000Y0092715D01*
X0138300Y0094406D01*
X0138832Y0093120D02*
X0143975Y0093120D01*
X0139000Y0091521D02*
X0161500Y0091521D01*
X0161500Y0089923D02*
X0138601Y0089923D01*
X0137429Y0088324D02*
X0161500Y0088324D01*
X0161500Y0086726D02*
X0117100Y0086726D01*
X0117100Y0088324D02*
X0126171Y0088324D01*
X0124999Y0089923D02*
X0117100Y0089923D01*
X0117100Y0091521D02*
X0124600Y0091521D01*
X0124768Y0093120D02*
X0117100Y0093120D01*
X0117100Y0094718D02*
X0125613Y0094718D01*
X0128084Y0096317D02*
X0117100Y0096317D01*
X0117100Y0097915D02*
X0126579Y0097915D01*
X0125168Y0099514D02*
X0117100Y0099514D01*
X0117100Y0101112D02*
X0124600Y0101112D01*
X0124600Y0102711D02*
X0117100Y0102711D01*
X0117100Y0103140D02*
X0124672Y0110712D01*
X0125300Y0109194D01*
X0126594Y0107900D01*
X0128285Y0107200D01*
X0135315Y0107200D01*
X0137006Y0107900D01*
X0138300Y0109194D01*
X0139000Y0110885D01*
X0139000Y0112715D01*
X0138300Y0114406D01*
X0137006Y0115700D01*
X0135315Y0116400D01*
X0130360Y0116400D01*
X0131160Y0117200D01*
X0135315Y0117200D01*
X0137006Y0117900D01*
X0138100Y0118995D01*
X0139895Y0117200D01*
X0143705Y0117200D01*
X0146400Y0119895D01*
X0146400Y0123705D01*
X0143705Y0126400D01*
X0139895Y0126400D01*
X0138100Y0124605D01*
X0137006Y0125700D01*
X0135315Y0126400D01*
X0128285Y0126400D01*
X0126594Y0125700D01*
X0125300Y0124406D01*
X0124600Y0122715D01*
X0124600Y0120885D01*
X0125281Y0119241D01*
X0117100Y0111060D01*
X0117100Y0153140D01*
X0124884Y0160924D01*
X0124908Y0160770D01*
X0125122Y0160111D01*
X0125437Y0159494D01*
X0125844Y0158934D01*
X0126334Y0158444D01*
X0126894Y0158037D01*
X0127511Y0157722D01*
X0128170Y0157508D01*
X0128854Y0157400D01*
X0131800Y0157400D01*
X0134746Y0157400D01*
X0135430Y0157508D01*
X0136089Y0157722D01*
X0136706Y0158037D01*
X0137266Y0158444D01*
X0137756Y0158934D01*
X0138046Y0159332D01*
X0139977Y0157400D01*
X0141800Y0157400D01*
X0143623Y0157400D01*
X0146200Y0159977D01*
X0146200Y0161800D01*
X0146200Y0163623D01*
X0143623Y0166200D01*
X0141800Y0166200D01*
X0141800Y0161800D01*
X0141800Y0161800D01*
X0146200Y0161800D01*
X0141800Y0161800D01*
X0141800Y0161800D01*
X0141800Y0161800D01*
X0137400Y0161800D01*
X0131800Y0161800D01*
X0131800Y0161800D01*
X0131800Y0161800D01*
X0131800Y0166200D01*
X0134746Y0166200D01*
X0135430Y0166092D01*
X0136089Y0165878D01*
X0136706Y0165563D01*
X0137266Y0165156D01*
X0137756Y0164666D01*
X0138046Y0164268D01*
X0139977Y0166200D01*
X0141800Y0166200D01*
X0141800Y0161800D01*
X0141800Y0157400D01*
X0141800Y0161800D01*
X0141800Y0161800D01*
X0131800Y0161800D01*
X0131800Y0166200D01*
X0130160Y0166200D01*
X0131160Y0167200D01*
X0135315Y0167200D01*
X0137006Y0167900D01*
X0138100Y0168995D01*
X0139895Y0167200D01*
X0143705Y0167200D01*
X0146400Y0169895D01*
X0146400Y0173705D01*
X0144600Y0175505D01*
X0144600Y0189857D01*
X0144174Y0190886D01*
X0141400Y0193660D01*
X0141400Y0196205D01*
X0138705Y0198900D01*
X0134895Y0198900D01*
X0132200Y0196205D01*
X0132200Y0192395D01*
X0134895Y0189700D01*
X0137440Y0189700D01*
X0139000Y0188140D01*
X0139000Y0175505D01*
X0138100Y0174605D01*
X0137006Y0175700D01*
X0135315Y0176400D01*
X0128285Y0176400D01*
X0126594Y0175700D01*
X0125300Y0174406D01*
X0124600Y0172715D01*
X0124600Y0170885D01*
X0125281Y0169241D01*
X0117100Y0161060D01*
X0117100Y0169857D01*
X0116674Y0170886D01*
X0104174Y0183386D01*
X0103386Y0184174D01*
X0102357Y0184600D01*
X0056243Y0184600D01*
X0055214Y0184174D01*
X0047440Y0176400D01*
X0044895Y0176400D01*
X0042200Y0173705D01*
X0042200Y0169895D01*
X0044895Y0167200D01*
X0048705Y0167200D01*
X0051400Y0169895D01*
X0051400Y0172440D01*
X0057960Y0179000D01*
X0100640Y0179000D01*
X0103240Y0176400D01*
X0098285Y0176400D01*
X0096594Y0175700D01*
X0095300Y0174406D01*
X0094600Y0172715D01*
X0094600Y0170885D01*
X0095300Y0169194D01*
X0096594Y0167900D01*
X0098285Y0167200D01*
X0105315Y0167200D01*
X0107006Y0167900D01*
X0108300Y0169194D01*
X0108928Y0170712D01*
X0111500Y0168140D01*
X0111500Y0046060D01*
X0108319Y0049241D01*
X0109000Y0050885D01*
X0109000Y0052715D01*
X0108300Y0054406D01*
X0107006Y0055700D01*
X0105315Y0056400D01*
X0098285Y0056400D01*
X0096594Y0055700D01*
X0095300Y0054406D01*
X0094600Y0052715D01*
X0094600Y0050885D01*
X0095300Y0049194D01*
X0096594Y0047900D01*
X0098285Y0047200D01*
X0102440Y0047200D01*
X0103240Y0046400D01*
X0098285Y0046400D01*
X0096594Y0045700D01*
X0095300Y0044406D01*
X0094600Y0042715D01*
X0094600Y0040885D01*
X0095300Y0039194D01*
X0096594Y0037900D01*
X0098285Y0037200D01*
X0105315Y0037200D01*
X0107006Y0037900D01*
X0108300Y0039194D01*
X0108928Y0040712D01*
X0111500Y0038140D01*
X0111500Y0027960D01*
X0107440Y0023900D01*
X0104895Y0023900D01*
X0102200Y0021205D01*
X0102200Y0017395D01*
X0104895Y0014700D01*
X0108195Y0014700D01*
X0107200Y0013705D01*
X0107200Y0009895D01*
X0108295Y0008800D01*
X0050305Y0008800D01*
X0051400Y0009895D01*
X0051400Y0013705D01*
X0048705Y0016400D01*
X0044895Y0016400D01*
X0042200Y0013705D01*
X0042200Y0009895D01*
X0043295Y0008800D01*
X0025917Y0008800D01*
X0027529Y0009468D01*
X0029132Y0011071D01*
X0030000Y0013166D01*
X0030000Y0015434D01*
X0029822Y0015863D01*
X0065886Y0051926D01*
X0066674Y0052714D01*
X0067100Y0053743D01*
X0067100Y0068140D01*
X0071160Y0072200D01*
X0073705Y0072200D01*
X0076400Y0074895D01*
X0076400Y0078705D01*
X0073705Y0081400D01*
X0069895Y0081400D01*
X0067200Y0078705D01*
X0067200Y0076160D01*
X0061926Y0070886D01*
X0061500Y0069857D01*
X0061500Y0055460D01*
X0025863Y0019822D01*
X0025434Y0020000D01*
X0023166Y0020000D01*
X0021071Y0019132D01*
X0019468Y0017529D01*
X0018600Y0015434D01*
X0018600Y0013166D01*
X0019468Y0011071D01*
X0021071Y0009468D01*
X0022683Y0008800D01*
X0013800Y0008800D01*
X0013800Y0067181D01*
X0013917Y0067096D01*
X0014689Y0066703D01*
X0015512Y0066435D01*
X0016367Y0066300D01*
X0016600Y0066300D01*
X0016600Y0071600D01*
X0017000Y0071600D01*
X0017000Y0072000D01*
X0022300Y0072000D01*
X0022300Y0072233D01*
X0022280Y0072360D01*
X0029000Y0065640D01*
X0029000Y0060460D01*
X0028900Y0060360D01*
X0028900Y0063705D01*
X0026205Y0066400D01*
X0022395Y0066400D01*
X0019700Y0063705D01*
X0019700Y0059895D01*
X0022395Y0057200D01*
X0025740Y0057200D01*
X0024940Y0056400D01*
X0022395Y0056400D01*
X0019700Y0053705D01*
X0019700Y0049895D01*
X0022395Y0047200D01*
X0026205Y0047200D01*
X0028900Y0049895D01*
X0028900Y0052440D01*
X0033386Y0056926D01*
X0034174Y0057714D01*
X0034600Y0058743D01*
X0034600Y0067357D01*
X0034174Y0068386D01*
X0022322Y0080237D01*
X0022500Y0080666D01*
X0022500Y0082934D01*
X0021632Y0085029D01*
X0020029Y0086632D01*
X0019624Y0086800D01*
X0020029Y0086968D01*
X0021632Y0088571D01*
X0022500Y0090666D01*
X0022500Y0092934D01*
X0021632Y0095029D01*
X0020029Y0096632D01*
X0019624Y0096800D01*
X0020029Y0096968D01*
X0021632Y0098571D01*
X0022500Y0100666D01*
X0022500Y0102934D01*
X0021632Y0105029D01*
X0020029Y0106632D01*
X0019624Y0106800D01*
X0020029Y0106968D01*
X0021632Y0108571D01*
X0022500Y0110666D01*
X0022500Y0112934D01*
X0021632Y0115029D01*
X0020029Y0116632D01*
X0019624Y0116800D01*
X0020029Y0116968D01*
X0021632Y0118571D01*
X0022500Y0120666D01*
X0022500Y0122934D01*
X0021632Y0125029D01*
X0020029Y0126632D01*
X0019624Y0126800D01*
X0020029Y0126968D01*
X0021632Y0128571D01*
X0022500Y0130666D01*
X0022500Y0132934D01*
X0021632Y0135029D01*
X0020029Y0136632D01*
X0019624Y0136800D01*
X0020029Y0136968D01*
X0021632Y0138571D01*
X0022500Y0140666D01*
X0022500Y0142934D01*
X0021632Y0145029D01*
X0020029Y0146632D01*
X0019624Y0146800D01*
X0020029Y0146968D01*
X0021632Y0148571D01*
X0022500Y0150666D01*
X0024000Y0150666D01*
X0022500Y0150666D02*
X0022500Y0152934D01*
X0021632Y0155029D01*
X0020029Y0156632D01*
X0019624Y0156800D01*
X0020029Y0156968D01*
X0021632Y0158571D01*
X0022500Y0160666D01*
X0022500Y0162934D01*
X0021632Y0165029D01*
X0020029Y0166632D01*
X0019336Y0166919D01*
X0019683Y0167096D01*
X0020383Y0167605D01*
X0020995Y0168217D01*
X0021504Y0168917D01*
X0021897Y0169689D01*
X0022165Y0170512D01*
X0022300Y0171367D01*
X0022300Y0171600D01*
X0017000Y0171600D01*
X0017000Y0172000D01*
X0022300Y0172000D01*
X0022300Y0172233D01*
X0022165Y0173088D01*
X0021897Y0173911D01*
X0021504Y0174683D01*
X0020995Y0175383D01*
X0020383Y0175995D01*
X0019683Y0176504D01*
X0019336Y0176681D01*
X0020029Y0176968D01*
X0021632Y0178571D01*
X0022500Y0180666D01*
X0022500Y0182934D01*
X0021632Y0185029D01*
X0020029Y0186632D01*
X0019624Y0186800D01*
X0020029Y0186968D01*
X0021632Y0188571D01*
X0022500Y0190666D01*
X0022500Y0192934D01*
X0021632Y0195029D01*
X0020029Y0196632D01*
X0017934Y0197500D01*
X0015666Y0197500D01*
X0013800Y0196727D01*
X0013800Y0201650D01*
X0206650Y0201650D01*
X0206650Y0146789D01*
X0204934Y0147500D01*
X0202666Y0147500D01*
X0200571Y0146632D01*
X0198968Y0145029D01*
X0198100Y0142934D01*
X0198100Y0140666D01*
X0198968Y0138571D01*
X0200571Y0136968D01*
X0200976Y0136800D01*
X0200571Y0136632D01*
X0198968Y0135029D01*
X0198100Y0132934D01*
X0198100Y0130666D01*
X0198968Y0128571D01*
X0200571Y0126968D01*
X0200976Y0126800D01*
X0200571Y0126632D01*
X0198968Y0125029D01*
X0198100Y0122934D01*
X0198100Y0120666D01*
X0198968Y0118571D01*
X0200571Y0116968D01*
X0200976Y0116800D01*
X0200571Y0116632D01*
X0198968Y0115029D01*
X0198100Y0112934D01*
X0198100Y0110666D01*
X0198968Y0108571D01*
X0200571Y0106968D01*
X0200976Y0106800D01*
X0200571Y0106632D01*
X0198968Y0105029D01*
X0198100Y0102934D01*
X0198100Y0100666D01*
X0198968Y0098571D01*
X0200571Y0096968D01*
X0200976Y0096800D01*
X0200571Y0096632D01*
X0198968Y0095029D01*
X0198100Y0092934D01*
X0198100Y0090666D01*
X0198968Y0088571D01*
X0200571Y0086968D01*
X0200976Y0086800D01*
X0200571Y0086632D01*
X0198968Y0085029D01*
X0198100Y0082934D01*
X0198100Y0080666D01*
X0198968Y0078571D01*
X0200571Y0076968D01*
X0201264Y0076681D01*
X0200917Y0076504D01*
X0200217Y0075995D01*
X0199605Y0075383D01*
X0199096Y0074683D01*
X0198703Y0073911D01*
X0198435Y0073088D01*
X0198300Y0072233D01*
X0198300Y0072000D01*
X0203600Y0072000D01*
X0203600Y0071600D01*
X0204000Y0071600D01*
X0204000Y0066300D01*
X0204233Y0066300D01*
X0205088Y0066435D01*
X0205911Y0066703D01*
X0206650Y0067080D01*
X0206650Y0008800D01*
X0199425Y0008800D01*
X0200240Y0009615D01*
X0200997Y0011442D01*
X0200997Y0013418D01*
X0200240Y0015244D01*
X0198843Y0016642D01*
X0197017Y0017398D01*
X0189103Y0017398D01*
X0187277Y0016642D01*
X0185879Y0015244D01*
X0185123Y0013418D01*
X0185123Y0011442D01*
X0185879Y0009615D01*
X0186695Y0008800D01*
X0115305Y0008800D01*
X0116400Y0009895D01*
X0116400Y0013705D01*
X0115205Y0014900D01*
X0116800Y0014900D01*
X0118623Y0014900D01*
X0121200Y0017477D01*
X0121200Y0019300D01*
X0121200Y0021123D01*
X0118623Y0023700D01*
X0116800Y0023700D01*
X0116800Y0019300D01*
X0116800Y0019300D01*
X0121200Y0019300D01*
X0116800Y0019300D01*
X0116800Y0019300D01*
X0116800Y0023700D01*
X0115160Y0023700D01*
X0115886Y0024426D01*
X0116674Y0025214D01*
X0117100Y0026243D01*
X0117100Y0103140D01*
X0118269Y0104309D02*
X0125260Y0104309D01*
X0127097Y0105908D02*
X0119867Y0105908D01*
X0121466Y0107506D02*
X0127546Y0107506D01*
X0125390Y0109105D02*
X0123065Y0109105D01*
X0124663Y0110703D02*
X0124675Y0110703D01*
X0121539Y0115499D02*
X0117100Y0115499D01*
X0117100Y0117097D02*
X0123137Y0117097D01*
X0124736Y0118696D02*
X0117100Y0118696D01*
X0117100Y0120294D02*
X0124845Y0120294D01*
X0124600Y0121893D02*
X0117100Y0121893D01*
X0117100Y0123491D02*
X0124922Y0123491D01*
X0125984Y0125090D02*
X0117100Y0125090D01*
X0117100Y0126688D02*
X0200707Y0126688D01*
X0199252Y0128287D02*
X0137392Y0128287D01*
X0137006Y0127900D02*
X0138300Y0129194D01*
X0139000Y0130885D01*
X0139000Y0132715D01*
X0138300Y0134406D01*
X0137006Y0135700D01*
X0135315Y0136400D01*
X0128285Y0136400D01*
X0126594Y0135700D01*
X0125300Y0134406D01*
X0124600Y0132715D01*
X0124600Y0130885D01*
X0125300Y0129194D01*
X0126594Y0127900D01*
X0128285Y0127200D01*
X0135315Y0127200D01*
X0137006Y0127900D01*
X0138586Y0129885D02*
X0198423Y0129885D01*
X0198100Y0131484D02*
X0139000Y0131484D01*
X0138848Y0133082D02*
X0198162Y0133082D01*
X0198824Y0134681D02*
X0138024Y0134681D01*
X0135606Y0136279D02*
X0200218Y0136279D01*
X0199661Y0137878D02*
X0136952Y0137878D01*
X0137006Y0137900D02*
X0138300Y0139194D01*
X0139000Y0140885D01*
X0139000Y0142715D01*
X0138300Y0144406D01*
X0137006Y0145700D01*
X0135315Y0146400D01*
X0128285Y0146400D01*
X0126594Y0145700D01*
X0125300Y0144406D01*
X0124600Y0142715D01*
X0124600Y0140885D01*
X0125300Y0139194D01*
X0126594Y0137900D01*
X0128285Y0137200D01*
X0135315Y0137200D01*
X0137006Y0137900D01*
X0138417Y0139476D02*
X0198593Y0139476D01*
X0198100Y0141075D02*
X0139000Y0141075D01*
X0139000Y0142673D02*
X0198100Y0142673D01*
X0198654Y0144272D02*
X0138355Y0144272D01*
X0136593Y0145870D02*
X0199809Y0145870D01*
X0202591Y0147469D02*
X0135964Y0147469D01*
X0135315Y0147200D02*
X0137006Y0147900D01*
X0138300Y0149194D01*
X0139000Y0150885D01*
X0139000Y0152715D01*
X0138300Y0154406D01*
X0137006Y0155700D01*
X0135315Y0156400D01*
X0128285Y0156400D01*
X0126594Y0155700D01*
X0125300Y0154406D01*
X0124600Y0152715D01*
X0124600Y0150885D01*
X0125300Y0149194D01*
X0126594Y0147900D01*
X0128285Y0147200D01*
X0135315Y0147200D01*
X0138173Y0149068D02*
X0206650Y0149068D01*
X0206650Y0150666D02*
X0138909Y0150666D01*
X0139000Y0152265D02*
X0206650Y0152265D01*
X0206650Y0153863D02*
X0138524Y0153863D01*
X0137244Y0155462D02*
X0206650Y0155462D01*
X0206650Y0157060D02*
X0121020Y0157060D01*
X0122618Y0158659D02*
X0126119Y0158659D01*
X0125075Y0160257D02*
X0124217Y0160257D01*
X0126356Y0155462D02*
X0119421Y0155462D01*
X0117823Y0153863D02*
X0125076Y0153863D01*
X0124600Y0152265D02*
X0117100Y0152265D01*
X0117100Y0150666D02*
X0124691Y0150666D01*
X0125427Y0149068D02*
X0117100Y0149068D01*
X0117100Y0147469D02*
X0127636Y0147469D01*
X0127007Y0145870D02*
X0117100Y0145870D01*
X0117100Y0144272D02*
X0125245Y0144272D01*
X0124600Y0142673D02*
X0117100Y0142673D01*
X0117100Y0141075D02*
X0124600Y0141075D01*
X0125183Y0139476D02*
X0117100Y0139476D01*
X0117100Y0137878D02*
X0126648Y0137878D01*
X0127994Y0136279D02*
X0117100Y0136279D01*
X0117100Y0134681D02*
X0125576Y0134681D01*
X0124752Y0133082D02*
X0117100Y0133082D01*
X0117100Y0131484D02*
X0124600Y0131484D01*
X0125014Y0129885D02*
X0117100Y0129885D01*
X0117100Y0128287D02*
X0126208Y0128287D01*
X0131800Y0121800D02*
X0114300Y0104300D01*
X0114300Y0154300D01*
X0114300Y0169300D01*
X0101800Y0181800D01*
X0056800Y0181800D01*
X0046800Y0171800D01*
X0051400Y0171447D02*
X0082200Y0171447D01*
X0082200Y0169895D02*
X0084895Y0167200D01*
X0088705Y0167200D01*
X0091400Y0169895D01*
X0091400Y0173705D01*
X0088705Y0176400D01*
X0084895Y0176400D01*
X0082200Y0173705D01*
X0082200Y0169895D01*
X0082246Y0169848D02*
X0051354Y0169848D01*
X0049755Y0168250D02*
X0083845Y0168250D01*
X0082552Y0165581D02*
X0081048Y0165581D01*
X0079658Y0165005D01*
X0078595Y0163942D01*
X0078019Y0162552D01*
X0078019Y0161048D01*
X0078595Y0159658D01*
X0079000Y0159253D01*
X0079000Y0144347D01*
X0078595Y0143942D01*
X0078019Y0142552D01*
X0078019Y0141048D01*
X0078595Y0139658D01*
X0079658Y0138595D01*
X0081048Y0138019D01*
X0082552Y0138019D01*
X0083942Y0138595D01*
X0085005Y0139658D01*
X0085581Y0141048D01*
X0085581Y0142552D01*
X0085005Y0143942D01*
X0084600Y0144347D01*
X0084600Y0159253D01*
X0085005Y0159658D01*
X0085581Y0161048D01*
X0085581Y0162552D01*
X0085005Y0163942D01*
X0083942Y0165005D01*
X0082552Y0165581D01*
X0083828Y0165053D02*
X0095947Y0165053D01*
X0096594Y0165700D02*
X0095300Y0164406D01*
X0094600Y0162715D01*
X0094600Y0160885D01*
X0095300Y0159194D01*
X0096594Y0157900D01*
X0098285Y0157200D01*
X0105315Y0157200D01*
X0107006Y0157900D01*
X0108300Y0159194D01*
X0109000Y0160885D01*
X0109000Y0162715D01*
X0108300Y0164406D01*
X0107006Y0165700D01*
X0105315Y0166400D01*
X0098285Y0166400D01*
X0096594Y0165700D01*
X0096245Y0168250D02*
X0089755Y0168250D01*
X0091354Y0169848D02*
X0095029Y0169848D01*
X0094600Y0171447D02*
X0091400Y0171447D01*
X0091400Y0173045D02*
X0094737Y0173045D01*
X0095538Y0174644D02*
X0090462Y0174644D01*
X0088863Y0176242D02*
X0097904Y0176242D01*
X0101799Y0177841D02*
X0056800Y0177841D01*
X0055202Y0176242D02*
X0084737Y0176242D01*
X0083138Y0174644D02*
X0053603Y0174644D01*
X0052005Y0173045D02*
X0082200Y0173045D01*
X0079772Y0165053D02*
X0021608Y0165053D01*
X0022284Y0163454D02*
X0078393Y0163454D01*
X0078019Y0161856D02*
X0022500Y0161856D01*
X0022331Y0160257D02*
X0025266Y0160257D01*
X0024658Y0160005D02*
X0023595Y0158942D01*
X0023019Y0157552D01*
X0023019Y0156048D01*
X0023595Y0154658D01*
X0024000Y0154253D01*
X0024000Y0144347D01*
X0023595Y0143942D01*
X0023019Y0142552D01*
X0023019Y0141048D01*
X0023595Y0139658D01*
X0024658Y0138595D01*
X0026048Y0138019D01*
X0027552Y0138019D01*
X0028942Y0138595D01*
X0029000Y0138653D01*
X0029000Y0134347D01*
X0028595Y0133942D01*
X0028019Y0132552D01*
X0028019Y0131048D01*
X0028595Y0129658D01*
X0029658Y0128595D01*
X0031048Y0128019D01*
X0032552Y0128019D01*
X0033942Y0128595D01*
X0035005Y0129658D01*
X0035581Y0131048D01*
X0035581Y0132552D01*
X0035005Y0133942D01*
X0034600Y0134347D01*
X0034600Y0144253D01*
X0035005Y0144658D01*
X0035581Y0146048D01*
X0035581Y0147552D01*
X0035005Y0148942D01*
X0033942Y0150005D01*
X0032552Y0150581D01*
X0031048Y0150581D01*
X0029658Y0150005D01*
X0029600Y0149947D01*
X0029600Y0154253D01*
X0030005Y0154658D01*
X0030581Y0156048D01*
X0030581Y0157552D01*
X0030005Y0158942D01*
X0028942Y0160005D01*
X0027552Y0160581D01*
X0026048Y0160581D01*
X0024658Y0160005D01*
X0023477Y0158659D02*
X0021668Y0158659D01*
X0023019Y0157060D02*
X0020121Y0157060D01*
X0021199Y0155462D02*
X0023262Y0155462D01*
X0024000Y0153863D02*
X0022115Y0153863D01*
X0022500Y0152265D02*
X0024000Y0152265D01*
X0024000Y0149068D02*
X0021838Y0149068D01*
X0020530Y0147469D02*
X0024000Y0147469D01*
X0024000Y0145870D02*
X0020791Y0145870D01*
X0021946Y0144272D02*
X0023925Y0144272D01*
X0023069Y0142673D02*
X0022500Y0142673D01*
X0022500Y0141075D02*
X0023019Y0141075D01*
X0023776Y0139476D02*
X0022007Y0139476D01*
X0020939Y0137878D02*
X0029000Y0137878D01*
X0029000Y0136279D02*
X0020382Y0136279D01*
X0021776Y0134681D02*
X0029000Y0134681D01*
X0028239Y0133082D02*
X0022438Y0133082D01*
X0022500Y0131484D02*
X0028019Y0131484D01*
X0028500Y0129885D02*
X0022177Y0129885D01*
X0021348Y0128287D02*
X0030401Y0128287D01*
X0033199Y0128287D02*
X0070401Y0128287D01*
X0071048Y0128019D02*
X0072552Y0128019D01*
X0073942Y0128595D01*
X0075005Y0129658D01*
X0075581Y0131048D01*
X0075581Y0132552D01*
X0075005Y0133942D01*
X0074600Y0134347D01*
X0074600Y0149253D01*
X0075005Y0149658D01*
X0075581Y0151048D01*
X0075581Y0152552D01*
X0075005Y0153942D01*
X0073942Y0155005D01*
X0072552Y0155581D01*
X0071048Y0155581D01*
X0069658Y0155005D01*
X0068595Y0153942D01*
X0068019Y0152552D01*
X0068019Y0151048D01*
X0068595Y0149658D01*
X0069000Y0149253D01*
X0069000Y0134347D01*
X0068595Y0133942D01*
X0068019Y0132552D01*
X0068019Y0131048D01*
X0068595Y0129658D01*
X0069658Y0128595D01*
X0071048Y0128019D01*
X0073199Y0128287D02*
X0096208Y0128287D01*
X0096594Y0127900D02*
X0098285Y0127200D01*
X0105315Y0127200D01*
X0107006Y0127900D01*
X0108300Y0129194D01*
X0109000Y0130885D01*
X0109000Y0132715D01*
X0108300Y0134406D01*
X0107006Y0135700D01*
X0105315Y0136400D01*
X0098285Y0136400D01*
X0096594Y0135700D01*
X0095300Y0134406D01*
X0094600Y0132715D01*
X0094600Y0130885D01*
X0095300Y0129194D01*
X0096594Y0127900D01*
X0096594Y0125700D02*
X0095300Y0124406D01*
X0094600Y0122715D01*
X0094600Y0120885D01*
X0095300Y0119194D01*
X0096594Y0117900D01*
X0098285Y0117200D01*
X0105315Y0117200D01*
X0107006Y0117900D01*
X0108300Y0119194D01*
X0109000Y0120885D01*
X0109000Y0122715D01*
X0108300Y0124406D01*
X0107006Y0125700D01*
X0105315Y0126400D01*
X0098285Y0126400D01*
X0096594Y0125700D01*
X0095984Y0125090D02*
X0021571Y0125090D01*
X0022269Y0123491D02*
X0094922Y0123491D01*
X0094600Y0121893D02*
X0022500Y0121893D01*
X0022346Y0120294D02*
X0094845Y0120294D01*
X0095799Y0118696D02*
X0021684Y0118696D01*
X0020158Y0117097D02*
X0111500Y0117097D01*
X0111500Y0115499D02*
X0107207Y0115499D01*
X0107006Y0115700D02*
X0108300Y0114406D01*
X0109000Y0112715D01*
X0109000Y0110885D01*
X0108300Y0109194D01*
X0107006Y0107900D01*
X0105315Y0107200D01*
X0098285Y0107200D01*
X0096594Y0107900D01*
X0095300Y0109194D01*
X0094600Y0110885D01*
X0094600Y0112715D01*
X0095300Y0114406D01*
X0096594Y0115700D01*
X0098285Y0116400D01*
X0105315Y0116400D01*
X0107006Y0115700D01*
X0108509Y0113900D02*
X0111500Y0113900D01*
X0111500Y0112302D02*
X0109000Y0112302D01*
X0108925Y0110703D02*
X0111500Y0110703D01*
X0111500Y0109105D02*
X0108210Y0109105D01*
X0106054Y0107506D02*
X0111500Y0107506D01*
X0111500Y0105908D02*
X0105996Y0105908D01*
X0106089Y0105878D02*
X0105430Y0106092D01*
X0104746Y0106200D01*
X0101800Y0106200D01*
X0101800Y0101800D01*
X0101800Y0101800D01*
X0108800Y0101800D01*
X0108800Y0102146D01*
X0108692Y0102830D01*
X0108478Y0103489D01*
X0108163Y0104106D01*
X0107756Y0104666D01*
X0107266Y0105156D01*
X0106706Y0105563D01*
X0106089Y0105878D01*
X0108016Y0104309D02*
X0111500Y0104309D01*
X0111500Y0102711D02*
X0108711Y0102711D01*
X0108800Y0101800D02*
X0101800Y0101800D01*
X0101800Y0101800D01*
X0101800Y0097400D01*
X0104746Y0097400D01*
X0105430Y0097508D01*
X0106089Y0097722D01*
X0106706Y0098037D01*
X0107266Y0098444D01*
X0107756Y0098934D01*
X0108163Y0099494D01*
X0108478Y0100111D01*
X0108692Y0100770D01*
X0108800Y0101454D01*
X0108800Y0101800D01*
X0108746Y0101112D02*
X0111500Y0101112D01*
X0111500Y0099514D02*
X0108173Y0099514D01*
X0106467Y0097915D02*
X0111500Y0097915D01*
X0111500Y0096317D02*
X0105516Y0096317D01*
X0105315Y0096400D02*
X0107006Y0095700D01*
X0108300Y0094406D01*
X0109000Y0092715D01*
X0109000Y0090885D01*
X0108300Y0089194D01*
X0107006Y0087900D01*
X0105315Y0087200D01*
X0098285Y0087200D01*
X0096594Y0087900D01*
X0095300Y0089194D01*
X0094600Y0090885D01*
X0094600Y0092715D01*
X0095300Y0094406D01*
X0096594Y0095700D01*
X0098285Y0096400D01*
X0105315Y0096400D01*
X0107987Y0094718D02*
X0111500Y0094718D01*
X0111500Y0093120D02*
X0108832Y0093120D01*
X0109000Y0091521D02*
X0111500Y0091521D01*
X0111500Y0089923D02*
X0108601Y0089923D01*
X0107429Y0088324D02*
X0111500Y0088324D01*
X0111500Y0086726D02*
X0087303Y0086726D01*
X0087529Y0086632D02*
X0086836Y0086919D01*
X0087183Y0087096D01*
X0087883Y0087605D01*
X0088495Y0088217D01*
X0089004Y0088917D01*
X0089397Y0089689D01*
X0089665Y0090512D01*
X0089800Y0091367D01*
X0089800Y0091600D01*
X0084500Y0091600D01*
X0084500Y0092000D01*
X0089800Y0092000D01*
X0089800Y0092233D01*
X0089665Y0093088D01*
X0089397Y0093911D01*
X0089004Y0094683D01*
X0088495Y0095383D01*
X0087883Y0095995D01*
X0087183Y0096504D01*
X0086836Y0096681D01*
X0087529Y0096968D01*
X0089132Y0098571D01*
X0090000Y0100666D01*
X0090000Y0102934D01*
X0089132Y0105029D01*
X0087529Y0106632D01*
X0085434Y0107500D01*
X0083166Y0107500D01*
X0081071Y0106632D01*
X0079468Y0105029D01*
X0078600Y0102934D01*
X0078600Y0100666D01*
X0079468Y0098571D01*
X0081071Y0096968D01*
X0081764Y0096681D01*
X0081417Y0096504D01*
X0080717Y0095995D01*
X0080105Y0095383D01*
X0079596Y0094683D01*
X0079203Y0093911D01*
X0078935Y0093088D01*
X0078800Y0092233D01*
X0078800Y0092000D01*
X0084100Y0092000D01*
X0084100Y0091600D01*
X0078800Y0091600D01*
X0078800Y0091367D01*
X0078935Y0090512D01*
X0079203Y0089689D01*
X0079596Y0088917D01*
X0080105Y0088217D01*
X0080717Y0087605D01*
X0081417Y0087096D01*
X0081764Y0086919D01*
X0081071Y0086632D01*
X0079468Y0085029D01*
X0078600Y0082934D01*
X0078600Y0080666D01*
X0079468Y0078571D01*
X0081071Y0076968D01*
X0083166Y0076100D01*
X0085434Y0076100D01*
X0087529Y0076968D01*
X0089132Y0078571D01*
X0090000Y0080666D01*
X0090000Y0082934D01*
X0089132Y0085029D01*
X0087529Y0086632D01*
X0088573Y0088324D02*
X0096171Y0088324D01*
X0094999Y0089923D02*
X0089473Y0089923D01*
X0089800Y0091521D02*
X0094600Y0091521D01*
X0094768Y0093120D02*
X0089654Y0093120D01*
X0088978Y0094718D02*
X0095613Y0094718D01*
X0098084Y0096317D02*
X0087441Y0096317D01*
X0088476Y0097915D02*
X0097133Y0097915D01*
X0096894Y0098037D02*
X0097511Y0097722D01*
X0098170Y0097508D01*
X0098854Y0097400D01*
X0101800Y0097400D01*
X0101800Y0101800D01*
X0101800Y0101800D01*
X0101800Y0101800D01*
X0094800Y0101800D01*
X0094800Y0102146D01*
X0094908Y0102830D01*
X0095122Y0103489D01*
X0095437Y0104106D01*
X0095844Y0104666D01*
X0096334Y0105156D01*
X0096894Y0105563D01*
X0097511Y0105878D01*
X0098170Y0106092D01*
X0098854Y0106200D01*
X0101800Y0106200D01*
X0101800Y0101800D01*
X0094800Y0101800D01*
X0094800Y0101454D01*
X0094908Y0100770D01*
X0095122Y0100111D01*
X0095437Y0099494D01*
X0095844Y0098934D01*
X0096334Y0098444D01*
X0096894Y0098037D01*
X0095427Y0099514D02*
X0089523Y0099514D01*
X0090000Y0101112D02*
X0094854Y0101112D01*
X0094889Y0102711D02*
X0090000Y0102711D01*
X0089430Y0104309D02*
X0095584Y0104309D01*
X0097604Y0105908D02*
X0088253Y0105908D01*
X0095390Y0109105D02*
X0021853Y0109105D01*
X0022500Y0110703D02*
X0094675Y0110703D01*
X0094600Y0112302D02*
X0022500Y0112302D01*
X0022100Y0113900D02*
X0095091Y0113900D01*
X0096393Y0115499D02*
X0021162Y0115499D01*
X0020567Y0107506D02*
X0097546Y0107506D01*
X0101800Y0105908D02*
X0101800Y0105908D01*
X0101800Y0104309D02*
X0101800Y0104309D01*
X0101800Y0102711D02*
X0101800Y0102711D01*
X0101800Y0101112D02*
X0101800Y0101112D01*
X0101800Y0099514D02*
X0101800Y0099514D01*
X0101800Y0097915D02*
X0101800Y0097915D01*
X0098285Y0086400D02*
X0096594Y0085700D01*
X0095300Y0084406D01*
X0094600Y0082715D01*
X0094600Y0080885D01*
X0095300Y0079194D01*
X0096594Y0077900D01*
X0098285Y0077200D01*
X0105315Y0077200D01*
X0107006Y0077900D01*
X0108300Y0079194D01*
X0109000Y0080885D01*
X0109000Y0082715D01*
X0108300Y0084406D01*
X0107006Y0085700D01*
X0105315Y0086400D01*
X0098285Y0086400D01*
X0096022Y0085127D02*
X0089034Y0085127D01*
X0089754Y0083529D02*
X0094937Y0083529D01*
X0094600Y0081930D02*
X0090000Y0081930D01*
X0089861Y0080332D02*
X0094829Y0080332D01*
X0095762Y0078733D02*
X0089199Y0078733D01*
X0087696Y0077134D02*
X0111500Y0077134D01*
X0111500Y0075536D02*
X0107169Y0075536D01*
X0107006Y0075700D02*
X0108300Y0074406D01*
X0109000Y0072715D01*
X0109000Y0070885D01*
X0108300Y0069194D01*
X0107006Y0067900D01*
X0105315Y0067200D01*
X0098285Y0067200D01*
X0096594Y0067900D01*
X0095300Y0069194D01*
X0094600Y0070885D01*
X0094600Y0072715D01*
X0095300Y0074406D01*
X0096594Y0075700D01*
X0098285Y0076400D01*
X0105315Y0076400D01*
X0107006Y0075700D01*
X0108494Y0073937D02*
X0111500Y0073937D01*
X0111500Y0072339D02*
X0109000Y0072339D01*
X0108940Y0070740D02*
X0111500Y0070740D01*
X0111500Y0069142D02*
X0108247Y0069142D01*
X0106144Y0067543D02*
X0111500Y0067543D01*
X0111500Y0065945D02*
X0106414Y0065945D01*
X0107006Y0065700D02*
X0105315Y0066400D01*
X0098285Y0066400D01*
X0096594Y0065700D01*
X0095300Y0064406D01*
X0094600Y0062715D01*
X0094600Y0060885D01*
X0095300Y0059194D01*
X0096594Y0057900D01*
X0098285Y0057200D01*
X0105315Y0057200D01*
X0107006Y0057900D01*
X0108300Y0059194D01*
X0109000Y0060885D01*
X0109000Y0062715D01*
X0108300Y0064406D01*
X0107006Y0065700D01*
X0108324Y0064346D02*
X0111500Y0064346D01*
X0111500Y0062748D02*
X0108986Y0062748D01*
X0109000Y0061149D02*
X0111500Y0061149D01*
X0111500Y0059551D02*
X0108447Y0059551D01*
X0107058Y0057952D02*
X0111500Y0057952D01*
X0111500Y0056354D02*
X0105426Y0056354D01*
X0107950Y0054755D02*
X0111500Y0054755D01*
X0111500Y0053157D02*
X0108817Y0053157D01*
X0109000Y0051558D02*
X0111500Y0051558D01*
X0111500Y0049960D02*
X0108617Y0049960D01*
X0109198Y0048361D02*
X0111500Y0048361D01*
X0111500Y0046763D02*
X0110797Y0046763D01*
X0117100Y0046763D02*
X0161500Y0046763D01*
X0161500Y0048361D02*
X0137467Y0048361D01*
X0137006Y0047900D02*
X0135315Y0047200D01*
X0128285Y0047200D01*
X0126594Y0047900D01*
X0125300Y0049194D01*
X0124600Y0050885D01*
X0124600Y0052715D01*
X0125300Y0054406D01*
X0126594Y0055700D01*
X0128285Y0056400D01*
X0135315Y0056400D01*
X0137006Y0055700D01*
X0138300Y0054406D01*
X0139000Y0052715D01*
X0139000Y0050885D01*
X0138300Y0049194D01*
X0137006Y0047900D01*
X0137006Y0045700D02*
X0135315Y0046400D01*
X0128285Y0046400D01*
X0126594Y0045700D01*
X0125300Y0044406D01*
X0124600Y0042715D01*
X0124600Y0040885D01*
X0125300Y0039194D01*
X0126594Y0037900D01*
X0128285Y0037200D01*
X0129000Y0037200D01*
X0129000Y0023743D01*
X0129426Y0022714D01*
X0130214Y0021926D01*
X0130960Y0021181D01*
X0129540Y0021768D01*
X0127564Y0021768D01*
X0125738Y0021012D01*
X0124340Y0019614D01*
X0123583Y0017788D01*
X0123583Y0015812D01*
X0124340Y0013986D01*
X0125738Y0012588D01*
X0127564Y0011831D01*
X0129540Y0011831D01*
X0131366Y0012588D01*
X0132764Y0013986D01*
X0132766Y0013990D01*
X0133835Y0012922D01*
X0135516Y0012225D01*
X0137336Y0012225D01*
X0139017Y0012922D01*
X0140304Y0014209D01*
X0140363Y0014350D01*
X0140422Y0014209D01*
X0141709Y0012922D01*
X0143390Y0012225D01*
X0145210Y0012225D01*
X0146891Y0012922D01*
X0148178Y0014209D01*
X0148237Y0014350D01*
X0148296Y0014209D01*
X0149583Y0012922D01*
X0151264Y0012225D01*
X0153084Y0012225D01*
X0154765Y0012922D01*
X0155834Y0013990D01*
X0155836Y0013986D01*
X0157234Y0012588D01*
X0159060Y0011831D01*
X0161036Y0011831D01*
X0162862Y0012588D01*
X0164260Y0013986D01*
X0165017Y0015812D01*
X0165017Y0017788D01*
X0164260Y0019614D01*
X0162862Y0021012D01*
X0161036Y0021768D01*
X0159060Y0021768D01*
X0157234Y0021012D01*
X0155836Y0019614D01*
X0155834Y0019610D01*
X0154765Y0020678D01*
X0153084Y0021375D01*
X0151264Y0021375D01*
X0149583Y0020678D01*
X0148296Y0019391D01*
X0148237Y0019250D01*
X0148178Y0019391D01*
X0146891Y0020678D01*
X0145210Y0021375D01*
X0143390Y0021375D01*
X0141709Y0020678D01*
X0140422Y0019391D01*
X0140363Y0019250D01*
X0140304Y0019391D01*
X0139057Y0020639D01*
X0138800Y0021260D01*
X0138012Y0022048D01*
X0134600Y0025460D01*
X0134600Y0037200D01*
X0135315Y0037200D01*
X0137006Y0037900D01*
X0138300Y0039194D01*
X0139000Y0040885D01*
X0139000Y0042715D01*
X0138300Y0044406D01*
X0137006Y0045700D01*
X0137541Y0045164D02*
X0161500Y0045164D01*
X0161500Y0043566D02*
X0138648Y0043566D01*
X0139000Y0041967D02*
X0161500Y0041967D01*
X0161500Y0040369D02*
X0138786Y0040369D01*
X0137876Y0038770D02*
X0161500Y0038770D01*
X0161500Y0037172D02*
X0134600Y0037172D01*
X0134600Y0035573D02*
X0161500Y0035573D01*
X0161500Y0033975D02*
X0134600Y0033975D01*
X0134600Y0032376D02*
X0162264Y0032376D01*
X0163863Y0030778D02*
X0134600Y0030778D01*
X0134600Y0029179D02*
X0165461Y0029179D01*
X0167060Y0027581D02*
X0134600Y0027581D01*
X0134600Y0025982D02*
X0168658Y0025982D01*
X0169440Y0024384D02*
X0135676Y0024384D01*
X0137275Y0022785D02*
X0169385Y0022785D01*
X0168800Y0021187D02*
X0162441Y0021187D01*
X0164271Y0019588D02*
X0168817Y0019588D01*
X0169498Y0017990D02*
X0164933Y0017990D01*
X0165017Y0016391D02*
X0171660Y0016391D01*
X0174696Y0016391D02*
X0187026Y0016391D01*
X0185692Y0014793D02*
X0164594Y0014793D01*
X0163469Y0013194D02*
X0185123Y0013194D01*
X0185123Y0011596D02*
X0116400Y0011596D01*
X0116400Y0013194D02*
X0125131Y0013194D01*
X0124006Y0014793D02*
X0115313Y0014793D01*
X0116800Y0014900D02*
X0116800Y0019300D01*
X0116800Y0014900D01*
X0116800Y0016391D02*
X0116800Y0016391D01*
X0116800Y0017990D02*
X0116800Y0017990D01*
X0116800Y0019300D02*
X0116800Y0019300D01*
X0116800Y0019300D01*
X0112400Y0019300D01*
X0112400Y0020940D01*
X0111400Y0019940D01*
X0111400Y0017395D01*
X0110405Y0016400D01*
X0113477Y0016400D01*
X0112400Y0017477D01*
X0112400Y0019300D01*
X0116800Y0019300D01*
X0116800Y0019588D02*
X0116800Y0019588D01*
X0116800Y0021187D02*
X0116800Y0021187D01*
X0116800Y0022785D02*
X0116800Y0022785D01*
X0115843Y0024384D02*
X0129000Y0024384D01*
X0129000Y0025982D02*
X0116992Y0025982D01*
X0117100Y0027581D02*
X0129000Y0027581D01*
X0129000Y0029179D02*
X0117100Y0029179D01*
X0117100Y0030778D02*
X0129000Y0030778D01*
X0129000Y0032376D02*
X0117100Y0032376D01*
X0117100Y0033975D02*
X0129000Y0033975D01*
X0129000Y0035573D02*
X0117100Y0035573D01*
X0117100Y0037172D02*
X0129000Y0037172D01*
X0125724Y0038770D02*
X0117100Y0038770D01*
X0117100Y0040369D02*
X0124814Y0040369D01*
X0124600Y0041967D02*
X0117100Y0041967D01*
X0117100Y0043566D02*
X0124952Y0043566D01*
X0126059Y0045164D02*
X0117100Y0045164D01*
X0117100Y0048361D02*
X0126133Y0048361D01*
X0124983Y0049960D02*
X0117100Y0049960D01*
X0117100Y0051558D02*
X0124600Y0051558D01*
X0124783Y0053157D02*
X0117100Y0053157D01*
X0117100Y0054755D02*
X0125650Y0054755D01*
X0128174Y0056354D02*
X0117100Y0056354D01*
X0117100Y0057952D02*
X0126542Y0057952D01*
X0126594Y0057900D02*
X0128285Y0057200D01*
X0135315Y0057200D01*
X0137006Y0057900D01*
X0138300Y0059194D01*
X0139000Y0060885D01*
X0139000Y0062715D01*
X0138300Y0064406D01*
X0137006Y0065700D01*
X0135315Y0066400D01*
X0128285Y0066400D01*
X0126594Y0065700D01*
X0125300Y0064406D01*
X0124600Y0062715D01*
X0124600Y0060885D01*
X0125300Y0059194D01*
X0126594Y0057900D01*
X0125153Y0059551D02*
X0117100Y0059551D01*
X0117100Y0061149D02*
X0124600Y0061149D01*
X0124614Y0062748D02*
X0117100Y0062748D01*
X0117100Y0064346D02*
X0125276Y0064346D01*
X0127186Y0065945D02*
X0117100Y0065945D01*
X0117100Y0067543D02*
X0127456Y0067543D01*
X0128285Y0067200D02*
X0135315Y0067200D01*
X0137006Y0067900D01*
X0138300Y0069194D01*
X0139000Y0070885D01*
X0139000Y0072715D01*
X0138300Y0074406D01*
X0137006Y0075700D01*
X0135315Y0076400D01*
X0128285Y0076400D01*
X0126594Y0075700D01*
X0125300Y0074406D01*
X0124600Y0072715D01*
X0124600Y0070885D01*
X0125300Y0069194D01*
X0126594Y0067900D01*
X0128285Y0067200D01*
X0125353Y0069142D02*
X0117100Y0069142D01*
X0117100Y0070740D02*
X0124660Y0070740D01*
X0124600Y0072339D02*
X0117100Y0072339D01*
X0117100Y0073937D02*
X0125106Y0073937D01*
X0126431Y0075536D02*
X0117100Y0075536D01*
X0117100Y0077134D02*
X0142400Y0077134D01*
X0142400Y0076800D02*
X0146800Y0076800D01*
X0146800Y0076800D01*
X0146800Y0081200D01*
X0148623Y0081200D01*
X0151200Y0078623D01*
X0151200Y0076800D01*
X0146800Y0076800D01*
X0146800Y0076800D01*
X0146800Y0076800D01*
X0146800Y0081200D01*
X0144977Y0081200D01*
X0142400Y0078623D01*
X0142400Y0076800D01*
X0142400Y0074977D01*
X0144977Y0072400D01*
X0146800Y0072400D01*
X0148623Y0072400D01*
X0151200Y0074977D01*
X0151200Y0076800D01*
X0146800Y0076800D01*
X0146800Y0072400D01*
X0146800Y0076800D01*
X0146800Y0076800D01*
X0142400Y0076800D01*
X0142400Y0075536D02*
X0137169Y0075536D01*
X0138494Y0073937D02*
X0143440Y0073937D01*
X0146800Y0073937D02*
X0146800Y0073937D01*
X0146800Y0075536D02*
X0146800Y0075536D01*
X0146800Y0077134D02*
X0146800Y0077134D01*
X0146800Y0078733D02*
X0146800Y0078733D01*
X0146800Y0080332D02*
X0146800Y0080332D01*
X0149491Y0080332D02*
X0161500Y0080332D01*
X0161500Y0081930D02*
X0138800Y0081930D01*
X0138800Y0081800D02*
X0138800Y0082146D01*
X0138692Y0082830D01*
X0138478Y0083489D01*
X0138163Y0084106D01*
X0137756Y0084666D01*
X0137266Y0085156D01*
X0136706Y0085563D01*
X0136089Y0085878D01*
X0135430Y0086092D01*
X0134746Y0086200D01*
X0131800Y0086200D01*
X0131800Y0081800D01*
X0131800Y0081800D01*
X0138800Y0081800D01*
X0131800Y0081800D01*
X0131800Y0081800D01*
X0131800Y0077400D01*
X0134746Y0077400D01*
X0135430Y0077508D01*
X0136089Y0077722D01*
X0136706Y0078037D01*
X0137266Y0078444D01*
X0137756Y0078934D01*
X0138163Y0079494D01*
X0138478Y0080111D01*
X0138692Y0080770D01*
X0138800Y0081454D01*
X0138800Y0081800D01*
X0138549Y0080332D02*
X0144109Y0080332D01*
X0142510Y0078733D02*
X0137556Y0078733D01*
X0131800Y0078733D02*
X0131800Y0078733D01*
X0131800Y0077400D02*
X0131800Y0081800D01*
X0131800Y0081800D01*
X0131800Y0081800D01*
X0124800Y0081800D01*
X0124800Y0082146D01*
X0124908Y0082830D01*
X0125122Y0083489D01*
X0125437Y0084106D01*
X0125844Y0084666D01*
X0126334Y0085156D01*
X0126894Y0085563D01*
X0127511Y0085878D01*
X0128170Y0086092D01*
X0128854Y0086200D01*
X0131800Y0086200D01*
X0131800Y0081800D01*
X0124800Y0081800D01*
X0124800Y0081454D01*
X0124908Y0080770D01*
X0125122Y0080111D01*
X0125437Y0079494D01*
X0125844Y0078934D01*
X0126334Y0078444D01*
X0126894Y0078037D01*
X0127511Y0077722D01*
X0128170Y0077508D01*
X0128854Y0077400D01*
X0131800Y0077400D01*
X0131800Y0080332D02*
X0131800Y0080332D01*
X0131800Y0081930D02*
X0131800Y0081930D01*
X0131800Y0083529D02*
X0131800Y0083529D01*
X0131800Y0085127D02*
X0131800Y0085127D01*
X0137295Y0085127D02*
X0161500Y0085127D01*
X0161500Y0083529D02*
X0138457Y0083529D01*
X0149625Y0093120D02*
X0161500Y0093120D01*
X0161500Y0094718D02*
X0150917Y0094718D01*
X0151400Y0096317D02*
X0161500Y0096317D01*
X0161500Y0097915D02*
X0151317Y0097915D01*
X0150592Y0099514D02*
X0161239Y0099514D01*
X0167100Y0097915D02*
X0181500Y0097915D01*
X0181500Y0096317D02*
X0167100Y0096317D01*
X0167100Y0094718D02*
X0181500Y0094718D01*
X0181500Y0093120D02*
X0167100Y0093120D01*
X0167100Y0091521D02*
X0181500Y0091521D01*
X0181500Y0089923D02*
X0167100Y0089923D01*
X0167100Y0088324D02*
X0181500Y0088324D01*
X0181500Y0086726D02*
X0167100Y0086726D01*
X0167100Y0085127D02*
X0181500Y0085127D01*
X0181500Y0083529D02*
X0167100Y0083529D01*
X0167100Y0081930D02*
X0181500Y0081930D01*
X0181500Y0080332D02*
X0167100Y0080332D01*
X0167100Y0078733D02*
X0181500Y0078733D01*
X0181500Y0077134D02*
X0167100Y0077134D01*
X0167100Y0075536D02*
X0181500Y0075536D01*
X0181500Y0073937D02*
X0167100Y0073937D01*
X0167100Y0072339D02*
X0181500Y0072339D01*
X0181500Y0070740D02*
X0167100Y0070740D01*
X0167100Y0069142D02*
X0181500Y0069142D01*
X0181500Y0067543D02*
X0167100Y0067543D01*
X0167100Y0065945D02*
X0181500Y0065945D01*
X0181500Y0064346D02*
X0167100Y0064346D01*
X0167100Y0062748D02*
X0181500Y0062748D01*
X0181500Y0061149D02*
X0167100Y0061149D01*
X0167100Y0059551D02*
X0181500Y0059551D01*
X0181500Y0057952D02*
X0167100Y0057952D01*
X0167100Y0056354D02*
X0181500Y0056354D01*
X0181500Y0054755D02*
X0167100Y0054755D01*
X0167100Y0053157D02*
X0181500Y0053157D01*
X0181500Y0051558D02*
X0167100Y0051558D01*
X0167100Y0049960D02*
X0181500Y0049960D01*
X0187100Y0049960D02*
X0206650Y0049960D01*
X0206650Y0051558D02*
X0187100Y0051558D01*
X0187100Y0053157D02*
X0206650Y0053157D01*
X0206650Y0054755D02*
X0187100Y0054755D01*
X0187100Y0056354D02*
X0206650Y0056354D01*
X0206650Y0057952D02*
X0187100Y0057952D01*
X0187100Y0059551D02*
X0206650Y0059551D01*
X0206650Y0061149D02*
X0187100Y0061149D01*
X0187100Y0062748D02*
X0206650Y0062748D01*
X0206650Y0064346D02*
X0187100Y0064346D01*
X0187100Y0065945D02*
X0206650Y0065945D01*
X0203600Y0066300D02*
X0203600Y0071600D01*
X0198300Y0071600D01*
X0198300Y0071367D01*
X0198435Y0070512D01*
X0198703Y0069689D01*
X0199096Y0068917D01*
X0199605Y0068217D01*
X0200217Y0067605D01*
X0200917Y0067096D01*
X0201689Y0066703D01*
X0202512Y0066435D01*
X0203367Y0066300D01*
X0203600Y0066300D01*
X0203600Y0067543D02*
X0204000Y0067543D01*
X0204000Y0069142D02*
X0203600Y0069142D01*
X0203600Y0070740D02*
X0204000Y0070740D01*
X0200302Y0067543D02*
X0187100Y0067543D01*
X0187100Y0069142D02*
X0198982Y0069142D01*
X0198399Y0070740D02*
X0187100Y0070740D01*
X0187100Y0072339D02*
X0198317Y0072339D01*
X0198716Y0073937D02*
X0187100Y0073937D01*
X0187100Y0075536D02*
X0199758Y0075536D01*
X0200404Y0077134D02*
X0187100Y0077134D01*
X0187100Y0078733D02*
X0198901Y0078733D01*
X0198239Y0080332D02*
X0187100Y0080332D01*
X0187100Y0081930D02*
X0198100Y0081930D01*
X0198346Y0083529D02*
X0187100Y0083529D01*
X0187100Y0085127D02*
X0199066Y0085127D01*
X0200797Y0086726D02*
X0187100Y0086726D01*
X0187100Y0088324D02*
X0199215Y0088324D01*
X0198408Y0089923D02*
X0187100Y0089923D01*
X0187100Y0091521D02*
X0198100Y0091521D01*
X0198177Y0093120D02*
X0187100Y0093120D01*
X0187100Y0094718D02*
X0198839Y0094718D01*
X0200256Y0096317D02*
X0187100Y0096317D01*
X0187100Y0097915D02*
X0199624Y0097915D01*
X0198577Y0099514D02*
X0187100Y0099514D01*
X0187100Y0101112D02*
X0198100Y0101112D01*
X0198100Y0102711D02*
X0187100Y0102711D01*
X0187100Y0104309D02*
X0198670Y0104309D01*
X0199847Y0105908D02*
X0187100Y0105908D01*
X0187100Y0107506D02*
X0200033Y0107506D01*
X0198747Y0109105D02*
X0187100Y0109105D01*
X0187938Y0110703D02*
X0198100Y0110703D01*
X0198100Y0112302D02*
X0188081Y0112302D01*
X0187523Y0113900D02*
X0198500Y0113900D01*
X0199438Y0115499D02*
X0185251Y0115499D01*
X0183349Y0115499D02*
X0137207Y0115499D01*
X0138509Y0113900D02*
X0181077Y0113900D01*
X0180519Y0112302D02*
X0139000Y0112302D01*
X0138925Y0110703D02*
X0180662Y0110703D01*
X0181500Y0109105D02*
X0138210Y0109105D01*
X0136054Y0107506D02*
X0181500Y0107506D01*
X0181500Y0105908D02*
X0136503Y0105908D01*
X0131057Y0117097D02*
X0200442Y0117097D01*
X0198916Y0118696D02*
X0154918Y0118696D01*
X0156200Y0119977D02*
X0153623Y0117400D01*
X0151800Y0117400D01*
X0151800Y0121800D01*
X0156200Y0121800D01*
X0156200Y0123623D01*
X0153623Y0126200D01*
X0151800Y0126200D01*
X0151800Y0121800D01*
X0151800Y0121800D01*
X0151800Y0121800D01*
X0156200Y0121800D01*
X0156200Y0119977D01*
X0156200Y0120294D02*
X0198254Y0120294D01*
X0198100Y0121893D02*
X0156200Y0121893D01*
X0156200Y0123491D02*
X0198331Y0123491D01*
X0199029Y0125090D02*
X0154733Y0125090D01*
X0151800Y0125090D02*
X0151800Y0125090D01*
X0151800Y0126200D02*
X0149977Y0126200D01*
X0147400Y0123623D01*
X0147400Y0121800D01*
X0151800Y0121800D01*
X0151800Y0121800D01*
X0151800Y0121800D01*
X0151800Y0126200D01*
X0151800Y0123491D02*
X0151800Y0123491D01*
X0151800Y0121893D02*
X0151800Y0121893D01*
X0151800Y0121800D02*
X0147400Y0121800D01*
X0147400Y0119977D01*
X0149977Y0117400D01*
X0151800Y0117400D01*
X0151800Y0121800D01*
X0151800Y0120294D02*
X0151800Y0120294D01*
X0151800Y0118696D02*
X0151800Y0118696D01*
X0148682Y0118696D02*
X0145201Y0118696D01*
X0146400Y0120294D02*
X0147400Y0120294D01*
X0147400Y0121893D02*
X0146400Y0121893D01*
X0146400Y0123491D02*
X0147400Y0123491D01*
X0148867Y0125090D02*
X0145016Y0125090D01*
X0138584Y0125090D02*
X0137616Y0125090D01*
X0137801Y0118696D02*
X0138399Y0118696D01*
X0119940Y0113900D02*
X0117100Y0113900D01*
X0117100Y0112302D02*
X0118342Y0112302D01*
X0114300Y0104300D02*
X0114300Y0039300D01*
X0101800Y0051800D01*
X0102877Y0046763D02*
X0060723Y0046763D01*
X0062321Y0048361D02*
X0086233Y0048361D01*
X0087395Y0047200D02*
X0091205Y0047200D01*
X0093900Y0049895D01*
X0093900Y0053705D01*
X0091205Y0056400D01*
X0087395Y0056400D01*
X0084700Y0053705D01*
X0084700Y0049895D01*
X0087395Y0047200D01*
X0087477Y0046200D02*
X0084900Y0043623D01*
X0084900Y0041800D01*
X0089300Y0041800D01*
X0089300Y0041800D01*
X0089300Y0046200D01*
X0091123Y0046200D01*
X0093700Y0043623D01*
X0093700Y0041800D01*
X0089300Y0041800D01*
X0089300Y0041800D01*
X0089300Y0041800D01*
X0089300Y0046200D01*
X0087477Y0046200D01*
X0086442Y0045164D02*
X0059124Y0045164D01*
X0057526Y0043566D02*
X0084900Y0043566D01*
X0084900Y0041967D02*
X0055927Y0041967D01*
X0054329Y0040369D02*
X0068863Y0040369D01*
X0069895Y0041400D02*
X0067200Y0038705D01*
X0067200Y0034895D01*
X0069000Y0033095D01*
X0069000Y0028743D01*
X0069426Y0027714D01*
X0077200Y0019940D01*
X0077200Y0018385D01*
X0077900Y0016694D01*
X0079194Y0015400D01*
X0080885Y0014700D01*
X0082715Y0014700D01*
X0084406Y0015400D01*
X0085700Y0016694D01*
X0086400Y0018385D01*
X0086400Y0020215D01*
X0085700Y0021906D01*
X0084406Y0023200D01*
X0082715Y0023900D01*
X0081160Y0023900D01*
X0074600Y0030460D01*
X0074600Y0033095D01*
X0076400Y0034895D01*
X0076400Y0038705D01*
X0073705Y0041400D01*
X0069895Y0041400D01*
X0067265Y0038770D02*
X0052730Y0038770D01*
X0051131Y0037172D02*
X0067200Y0037172D01*
X0067200Y0035573D02*
X0049533Y0035573D01*
X0047934Y0033975D02*
X0068120Y0033975D01*
X0069000Y0032376D02*
X0046336Y0032376D01*
X0044737Y0030778D02*
X0069000Y0030778D01*
X0069000Y0029179D02*
X0043139Y0029179D01*
X0041540Y0027581D02*
X0069560Y0027581D01*
X0071158Y0025982D02*
X0048840Y0025982D01*
X0048623Y0026200D02*
X0046800Y0026200D01*
X0046800Y0021800D01*
X0046800Y0021800D01*
X0051200Y0021800D01*
X0051200Y0023623D01*
X0048623Y0026200D01*
X0046800Y0026200D02*
X0044977Y0026200D01*
X0042400Y0023623D01*
X0042400Y0021800D01*
X0046800Y0021800D01*
X0046800Y0021800D01*
X0046800Y0021800D01*
X0046800Y0026200D01*
X0046800Y0025982D02*
X0046800Y0025982D01*
X0046800Y0024384D02*
X0046800Y0024384D01*
X0046800Y0022785D02*
X0046800Y0022785D01*
X0046800Y0021800D02*
X0042400Y0021800D01*
X0042400Y0019977D01*
X0044977Y0017400D01*
X0046800Y0017400D01*
X0048623Y0017400D01*
X0051200Y0019977D01*
X0051200Y0021800D01*
X0046800Y0021800D01*
X0046800Y0017400D01*
X0046800Y0021800D01*
X0046800Y0021800D01*
X0046800Y0021187D02*
X0046800Y0021187D01*
X0046800Y0019588D02*
X0046800Y0019588D01*
X0046800Y0017990D02*
X0046800Y0017990D01*
X0049212Y0017990D02*
X0057400Y0017990D01*
X0057400Y0017477D02*
X0059977Y0014900D01*
X0061800Y0014900D01*
X0063623Y0014900D01*
X0066200Y0017477D01*
X0066200Y0019300D01*
X0066200Y0021123D01*
X0063623Y0023700D01*
X0061800Y0023700D01*
X0061800Y0019300D01*
X0066200Y0019300D01*
X0061800Y0019300D01*
X0061800Y0019300D01*
X0061800Y0019300D01*
X0061800Y0014900D01*
X0061800Y0019300D01*
X0061800Y0019300D01*
X0061800Y0019300D01*
X0057400Y0019300D01*
X0057400Y0021123D01*
X0059977Y0023700D01*
X0061800Y0023700D01*
X0061800Y0019300D01*
X0057400Y0019300D01*
X0057400Y0017477D01*
X0058486Y0016391D02*
X0048714Y0016391D01*
X0050313Y0014793D02*
X0080662Y0014793D01*
X0082938Y0014793D02*
X0092302Y0014793D01*
X0092395Y0014700D02*
X0096205Y0014700D01*
X0098900Y0017395D01*
X0098900Y0021205D01*
X0096205Y0023900D01*
X0092395Y0023900D01*
X0089700Y0021205D01*
X0089700Y0017395D01*
X0092395Y0014700D01*
X0090704Y0016391D02*
X0085396Y0016391D01*
X0086236Y0017990D02*
X0089700Y0017990D01*
X0089700Y0019588D02*
X0086400Y0019588D01*
X0085998Y0021187D02*
X0089700Y0021187D01*
X0091280Y0022785D02*
X0084820Y0022785D01*
X0081800Y0019300D02*
X0071800Y0029300D01*
X0071800Y0036800D01*
X0076400Y0037172D02*
X0111500Y0037172D01*
X0111500Y0035573D02*
X0076400Y0035573D01*
X0075480Y0033975D02*
X0111500Y0033975D01*
X0111500Y0032376D02*
X0097446Y0032376D01*
X0098700Y0031123D02*
X0096123Y0033700D01*
X0094300Y0033700D01*
X0094300Y0029300D01*
X0094300Y0029300D01*
X0098700Y0029300D01*
X0098700Y0031123D01*
X0098700Y0030778D02*
X0111500Y0030778D01*
X0111500Y0029179D02*
X0098700Y0029179D01*
X0098700Y0029300D02*
X0098700Y0027477D01*
X0096123Y0024900D01*
X0094300Y0024900D01*
X0094300Y0029300D01*
X0094300Y0029300D01*
X0094300Y0029300D01*
X0089900Y0029300D01*
X0089900Y0031123D01*
X0092477Y0033700D01*
X0094300Y0033700D01*
X0094300Y0029300D01*
X0098700Y0029300D01*
X0098700Y0027581D02*
X0111121Y0027581D01*
X0109522Y0025982D02*
X0097205Y0025982D01*
X0094300Y0025982D02*
X0094300Y0025982D01*
X0094300Y0024900D02*
X0092477Y0024900D01*
X0089900Y0027477D01*
X0089900Y0029300D01*
X0094300Y0029300D01*
X0094300Y0029300D01*
X0094300Y0024900D01*
X0097320Y0022785D02*
X0103780Y0022785D01*
X0102200Y0021187D02*
X0098900Y0021187D01*
X0098900Y0019588D02*
X0102200Y0019588D01*
X0102200Y0017990D02*
X0098900Y0017990D01*
X0097896Y0016391D02*
X0103204Y0016391D01*
X0104802Y0014793D02*
X0096298Y0014793D01*
X0106800Y0019300D02*
X0114300Y0026800D01*
X0114300Y0039300D01*
X0110870Y0038770D02*
X0107876Y0038770D01*
X0108786Y0040369D02*
X0109271Y0040369D01*
X0095724Y0038770D02*
X0092493Y0038770D01*
X0093700Y0039977D02*
X0091123Y0037400D01*
X0089300Y0037400D01*
X0089300Y0041800D01*
X0093700Y0041800D01*
X0093700Y0039977D01*
X0093700Y0040369D02*
X0094814Y0040369D01*
X0094600Y0041967D02*
X0093700Y0041967D01*
X0093700Y0043566D02*
X0094952Y0043566D01*
X0096059Y0045164D02*
X0092158Y0045164D01*
X0089300Y0045164D02*
X0089300Y0045164D01*
X0089300Y0043566D02*
X0089300Y0043566D01*
X0089300Y0041967D02*
X0089300Y0041967D01*
X0089300Y0041800D02*
X0084900Y0041800D01*
X0084900Y0039977D01*
X0087477Y0037400D01*
X0089300Y0037400D01*
X0089300Y0041800D01*
X0089300Y0041800D01*
X0089300Y0040369D02*
X0089300Y0040369D01*
X0089300Y0038770D02*
X0089300Y0038770D01*
X0086107Y0038770D02*
X0076335Y0038770D01*
X0074737Y0040369D02*
X0084900Y0040369D01*
X0084700Y0049960D02*
X0063920Y0049960D01*
X0065518Y0051558D02*
X0084700Y0051558D01*
X0084700Y0053157D02*
X0066857Y0053157D01*
X0067100Y0054755D02*
X0085750Y0054755D01*
X0087348Y0056354D02*
X0067100Y0056354D01*
X0067100Y0057952D02*
X0096542Y0057952D01*
X0095153Y0059551D02*
X0067100Y0059551D01*
X0067100Y0061149D02*
X0094600Y0061149D01*
X0094614Y0062748D02*
X0067100Y0062748D01*
X0067100Y0064346D02*
X0095276Y0064346D01*
X0097186Y0065945D02*
X0067100Y0065945D01*
X0067100Y0067543D02*
X0097456Y0067543D01*
X0095353Y0069142D02*
X0068102Y0069142D01*
X0069700Y0070740D02*
X0094660Y0070740D01*
X0094600Y0072339D02*
X0073844Y0072339D01*
X0075443Y0073937D02*
X0095106Y0073937D01*
X0096431Y0075536D02*
X0076400Y0075536D01*
X0076400Y0077134D02*
X0080904Y0077134D01*
X0079401Y0078733D02*
X0076372Y0078733D01*
X0074774Y0080332D02*
X0078739Y0080332D01*
X0078600Y0081930D02*
X0022500Y0081930D01*
X0022361Y0080332D02*
X0068826Y0080332D01*
X0067228Y0078733D02*
X0023827Y0078733D01*
X0025425Y0077134D02*
X0067200Y0077134D01*
X0066576Y0075536D02*
X0027024Y0075536D01*
X0028622Y0073937D02*
X0064978Y0073937D01*
X0063379Y0072339D02*
X0030221Y0072339D01*
X0031819Y0070740D02*
X0061866Y0070740D01*
X0061500Y0069142D02*
X0033418Y0069142D01*
X0034523Y0067543D02*
X0061500Y0067543D01*
X0061500Y0065945D02*
X0034600Y0065945D01*
X0034600Y0064346D02*
X0061500Y0064346D01*
X0061500Y0062748D02*
X0034600Y0062748D01*
X0034600Y0061149D02*
X0061500Y0061149D01*
X0061500Y0059551D02*
X0034600Y0059551D01*
X0034272Y0057952D02*
X0061500Y0057952D01*
X0061500Y0056354D02*
X0032814Y0056354D01*
X0031215Y0054755D02*
X0041033Y0054755D01*
X0039900Y0053623D02*
X0039900Y0051800D01*
X0044300Y0051800D01*
X0044300Y0051800D01*
X0044300Y0056200D01*
X0046123Y0056200D01*
X0048700Y0053623D01*
X0048700Y0051800D01*
X0044300Y0051800D01*
X0044300Y0051800D01*
X0044300Y0051800D01*
X0044300Y0056200D01*
X0042477Y0056200D01*
X0039900Y0053623D01*
X0039900Y0053157D02*
X0029617Y0053157D01*
X0028900Y0051558D02*
X0039900Y0051558D01*
X0039900Y0051800D02*
X0039900Y0049977D01*
X0042477Y0047400D01*
X0044300Y0047400D01*
X0046123Y0047400D01*
X0048700Y0049977D01*
X0048700Y0051800D01*
X0044300Y0051800D01*
X0044300Y0047400D01*
X0044300Y0051800D01*
X0044300Y0051800D01*
X0039900Y0051800D01*
X0039918Y0049960D02*
X0028900Y0049960D01*
X0027367Y0048361D02*
X0041516Y0048361D01*
X0044300Y0048361D02*
X0044300Y0048361D01*
X0044300Y0049960D02*
X0044300Y0049960D01*
X0044300Y0051558D02*
X0044300Y0051558D01*
X0044300Y0053157D02*
X0044300Y0053157D01*
X0044300Y0054755D02*
X0044300Y0054755D01*
X0047567Y0054755D02*
X0060796Y0054755D01*
X0059197Y0053157D02*
X0048700Y0053157D01*
X0048700Y0051558D02*
X0057599Y0051558D01*
X0056000Y0049960D02*
X0048682Y0049960D01*
X0047084Y0048361D02*
X0054402Y0048361D01*
X0052803Y0046763D02*
X0013800Y0046763D01*
X0013800Y0048361D02*
X0021233Y0048361D01*
X0019700Y0049960D02*
X0013800Y0049960D01*
X0013800Y0051558D02*
X0019700Y0051558D01*
X0019700Y0053157D02*
X0013800Y0053157D01*
X0013800Y0054755D02*
X0020750Y0054755D01*
X0022348Y0056354D02*
X0013800Y0056354D01*
X0013800Y0057952D02*
X0021642Y0057952D01*
X0020044Y0059551D02*
X0013800Y0059551D01*
X0013800Y0061149D02*
X0019700Y0061149D01*
X0019700Y0062748D02*
X0013800Y0062748D01*
X0013800Y0064346D02*
X0020341Y0064346D01*
X0021940Y0065945D02*
X0013800Y0065945D01*
X0017000Y0066300D02*
X0017233Y0066300D01*
X0018088Y0066435D01*
X0018911Y0066703D01*
X0019683Y0067096D01*
X0020383Y0067605D01*
X0020995Y0068217D01*
X0021504Y0068917D01*
X0021897Y0069689D01*
X0022165Y0070512D01*
X0022300Y0071367D01*
X0022300Y0071600D01*
X0017000Y0071600D01*
X0017000Y0066300D01*
X0017000Y0067543D02*
X0016600Y0067543D01*
X0016600Y0069142D02*
X0017000Y0069142D01*
X0017000Y0070740D02*
X0016600Y0070740D01*
X0020298Y0067543D02*
X0027097Y0067543D01*
X0026660Y0065945D02*
X0028695Y0065945D01*
X0029000Y0064346D02*
X0028259Y0064346D01*
X0028900Y0062748D02*
X0029000Y0062748D01*
X0029000Y0061149D02*
X0028900Y0061149D01*
X0031800Y0059300D02*
X0031800Y0066800D01*
X0016800Y0081800D01*
X0019803Y0086726D02*
X0081297Y0086726D01*
X0080027Y0088324D02*
X0047329Y0088324D01*
X0046205Y0087200D02*
X0048900Y0089895D01*
X0048900Y0093705D01*
X0046205Y0096400D01*
X0042395Y0096400D01*
X0039700Y0093705D01*
X0039700Y0089895D01*
X0042395Y0087200D01*
X0046205Y0087200D01*
X0048900Y0089923D02*
X0079127Y0089923D01*
X0078800Y0091521D02*
X0048900Y0091521D01*
X0048900Y0093120D02*
X0078946Y0093120D01*
X0079622Y0094718D02*
X0047887Y0094718D01*
X0046289Y0096317D02*
X0081159Y0096317D01*
X0080124Y0097915D02*
X0020976Y0097915D01*
X0020344Y0096317D02*
X0042311Y0096317D01*
X0040713Y0094718D02*
X0021761Y0094718D01*
X0022423Y0093120D02*
X0039700Y0093120D01*
X0039700Y0091521D02*
X0022500Y0091521D01*
X0022192Y0089923D02*
X0039700Y0089923D01*
X0041271Y0088324D02*
X0021385Y0088324D01*
X0021534Y0085127D02*
X0079566Y0085127D01*
X0078846Y0083529D02*
X0022254Y0083529D01*
X0022283Y0072339D02*
X0022301Y0072339D01*
X0022201Y0070740D02*
X0023900Y0070740D01*
X0025498Y0069142D02*
X0021618Y0069142D01*
X0031800Y0059300D02*
X0024300Y0051800D01*
X0024100Y0039800D02*
X0023867Y0039800D01*
X0023012Y0039665D01*
X0022189Y0039397D01*
X0021417Y0039004D01*
X0020717Y0038495D01*
X0020105Y0037883D01*
X0019596Y0037183D01*
X0019203Y0036411D01*
X0018935Y0035588D01*
X0018800Y0034733D01*
X0018800Y0034500D01*
X0024100Y0034500D01*
X0024100Y0039800D01*
X0024500Y0039800D02*
X0024733Y0039800D01*
X0025588Y0039665D01*
X0026411Y0039397D01*
X0027183Y0039004D01*
X0027883Y0038495D01*
X0028495Y0037883D01*
X0029004Y0037183D01*
X0029397Y0036411D01*
X0029665Y0035588D01*
X0029800Y0034733D01*
X0029800Y0034500D01*
X0024500Y0034500D01*
X0024500Y0034100D01*
X0029800Y0034100D01*
X0029800Y0033867D01*
X0029665Y0033012D01*
X0029397Y0032189D01*
X0029004Y0031417D01*
X0028495Y0030717D01*
X0027883Y0030105D01*
X0027183Y0029596D01*
X0026411Y0029203D01*
X0025588Y0028935D01*
X0024733Y0028800D01*
X0024500Y0028800D01*
X0024500Y0034100D01*
X0024100Y0034100D01*
X0024100Y0028800D01*
X0023867Y0028800D01*
X0023012Y0028935D01*
X0022189Y0029203D01*
X0021417Y0029596D01*
X0020717Y0030105D01*
X0020105Y0030717D01*
X0019596Y0031417D01*
X0019203Y0032189D01*
X0018935Y0033012D01*
X0018800Y0033867D01*
X0018800Y0034100D01*
X0024100Y0034100D01*
X0024100Y0034500D01*
X0024500Y0034500D01*
X0024500Y0039800D01*
X0024500Y0038770D02*
X0024100Y0038770D01*
X0024100Y0037172D02*
X0024500Y0037172D01*
X0024500Y0035573D02*
X0024100Y0035573D01*
X0024100Y0033975D02*
X0024500Y0033975D01*
X0024500Y0032376D02*
X0024100Y0032376D01*
X0024100Y0030778D02*
X0024500Y0030778D01*
X0024500Y0029179D02*
X0024100Y0029179D01*
X0022262Y0029179D02*
X0013800Y0029179D01*
X0013800Y0027581D02*
X0033621Y0027581D01*
X0035219Y0029179D02*
X0026338Y0029179D01*
X0028539Y0030778D02*
X0036818Y0030778D01*
X0038416Y0032376D02*
X0029458Y0032376D01*
X0029800Y0033975D02*
X0040015Y0033975D01*
X0041613Y0035573D02*
X0029667Y0035573D01*
X0029010Y0037172D02*
X0043212Y0037172D01*
X0044810Y0038770D02*
X0027504Y0038770D01*
X0021096Y0038770D02*
X0013800Y0038770D01*
X0013800Y0037172D02*
X0019590Y0037172D01*
X0018933Y0035573D02*
X0013800Y0035573D01*
X0013800Y0033975D02*
X0018800Y0033975D01*
X0019142Y0032376D02*
X0013800Y0032376D01*
X0013800Y0030778D02*
X0020061Y0030778D01*
X0013800Y0025982D02*
X0032022Y0025982D01*
X0030424Y0024384D02*
X0013800Y0024384D01*
X0013800Y0022785D02*
X0028825Y0022785D01*
X0027227Y0021187D02*
X0013800Y0021187D01*
X0013800Y0019588D02*
X0022172Y0019588D01*
X0019929Y0017990D02*
X0013800Y0017990D01*
X0013800Y0016391D02*
X0018997Y0016391D01*
X0018600Y0014793D02*
X0013800Y0014793D01*
X0013800Y0013194D02*
X0018600Y0013194D01*
X0019251Y0011596D02*
X0013800Y0011596D01*
X0013800Y0009997D02*
X0020542Y0009997D01*
X0024300Y0014300D02*
X0064300Y0054300D01*
X0064300Y0069300D01*
X0071800Y0076800D01*
X0091252Y0056354D02*
X0098174Y0056354D01*
X0095650Y0054755D02*
X0092850Y0054755D01*
X0093900Y0053157D02*
X0094783Y0053157D01*
X0094600Y0051558D02*
X0093900Y0051558D01*
X0093900Y0049960D02*
X0094983Y0049960D01*
X0096133Y0048361D02*
X0092367Y0048361D01*
X0091154Y0032376D02*
X0074600Y0032376D01*
X0074600Y0030778D02*
X0089900Y0030778D01*
X0089900Y0029179D02*
X0075881Y0029179D01*
X0077479Y0027581D02*
X0089900Y0027581D01*
X0091395Y0025982D02*
X0079078Y0025982D01*
X0080676Y0024384D02*
X0107924Y0024384D01*
X0111400Y0019588D02*
X0112400Y0019588D01*
X0112400Y0017990D02*
X0111400Y0017990D01*
X0107200Y0013194D02*
X0051400Y0013194D01*
X0051400Y0011596D02*
X0107200Y0011596D01*
X0107200Y0009997D02*
X0051400Y0009997D01*
X0044886Y0016391D02*
X0030351Y0016391D01*
X0030000Y0014793D02*
X0043287Y0014793D01*
X0042200Y0013194D02*
X0030000Y0013194D01*
X0029349Y0011596D02*
X0042200Y0011596D01*
X0042200Y0009997D02*
X0028058Y0009997D01*
X0031949Y0017990D02*
X0044388Y0017990D01*
X0042789Y0019588D02*
X0033548Y0019588D01*
X0035146Y0021187D02*
X0042400Y0021187D01*
X0042400Y0022785D02*
X0036745Y0022785D01*
X0038343Y0024384D02*
X0043161Y0024384D01*
X0044760Y0025982D02*
X0039942Y0025982D01*
X0050439Y0024384D02*
X0072757Y0024384D01*
X0074355Y0022785D02*
X0064537Y0022785D01*
X0066136Y0021187D02*
X0075954Y0021187D01*
X0077200Y0019588D02*
X0066200Y0019588D01*
X0066200Y0017990D02*
X0077364Y0017990D01*
X0078204Y0016391D02*
X0065114Y0016391D01*
X0061800Y0016391D02*
X0061800Y0016391D01*
X0061800Y0017990D02*
X0061800Y0017990D01*
X0061800Y0019588D02*
X0061800Y0019588D01*
X0061800Y0021187D02*
X0061800Y0021187D01*
X0061800Y0022785D02*
X0061800Y0022785D01*
X0059063Y0022785D02*
X0051200Y0022785D01*
X0051200Y0021187D02*
X0057464Y0021187D01*
X0057400Y0019588D02*
X0050811Y0019588D01*
X0046409Y0040369D02*
X0013800Y0040369D01*
X0013800Y0041967D02*
X0048007Y0041967D01*
X0049606Y0043566D02*
X0013800Y0043566D01*
X0013800Y0045164D02*
X0051204Y0045164D01*
X0094300Y0032376D02*
X0094300Y0032376D01*
X0094300Y0030778D02*
X0094300Y0030778D01*
X0094300Y0029179D02*
X0094300Y0029179D01*
X0094300Y0027581D02*
X0094300Y0027581D01*
X0116400Y0009997D02*
X0185721Y0009997D01*
X0200398Y0009997D02*
X0206650Y0009997D01*
X0206650Y0011596D02*
X0200997Y0011596D01*
X0200997Y0013194D02*
X0206650Y0013194D01*
X0206650Y0014793D02*
X0200428Y0014793D01*
X0199094Y0016391D02*
X0206650Y0016391D01*
X0206650Y0037172D02*
X0199056Y0037172D01*
X0200412Y0038770D02*
X0206650Y0038770D01*
X0206650Y0040369D02*
X0200997Y0040369D01*
X0200997Y0041967D02*
X0206650Y0041967D01*
X0206650Y0043566D02*
X0200414Y0043566D01*
X0199061Y0045164D02*
X0206650Y0045164D01*
X0206650Y0046763D02*
X0187100Y0046763D01*
X0187100Y0048361D02*
X0206650Y0048361D01*
X0184300Y0029300D02*
X0184300Y0111800D01*
X0161500Y0078733D02*
X0151090Y0078733D01*
X0151200Y0077134D02*
X0161500Y0077134D01*
X0161500Y0075536D02*
X0151200Y0075536D01*
X0150160Y0073937D02*
X0161500Y0073937D01*
X0161500Y0072339D02*
X0139000Y0072339D01*
X0138940Y0070740D02*
X0161500Y0070740D01*
X0161500Y0069142D02*
X0138247Y0069142D01*
X0136144Y0067543D02*
X0161500Y0067543D01*
X0161500Y0065945D02*
X0136414Y0065945D01*
X0138324Y0064346D02*
X0161500Y0064346D01*
X0161500Y0062748D02*
X0138986Y0062748D01*
X0139000Y0061149D02*
X0161500Y0061149D01*
X0161500Y0059551D02*
X0138447Y0059551D01*
X0137058Y0057952D02*
X0161500Y0057952D01*
X0161500Y0056354D02*
X0135426Y0056354D01*
X0137950Y0054755D02*
X0161500Y0054755D01*
X0161500Y0053157D02*
X0138817Y0053157D01*
X0139000Y0051558D02*
X0161500Y0051558D01*
X0161500Y0049960D02*
X0138617Y0049960D01*
X0131800Y0041800D02*
X0131800Y0024300D01*
X0136426Y0019674D01*
X0136426Y0016800D01*
X0139290Y0013194D02*
X0141436Y0013194D01*
X0147164Y0013194D02*
X0149310Y0013194D01*
X0155038Y0013194D02*
X0156627Y0013194D01*
X0157655Y0021187D02*
X0153538Y0021187D01*
X0150810Y0021187D02*
X0145664Y0021187D01*
X0142936Y0021187D02*
X0138830Y0021187D01*
X0138012Y0022048D02*
X0138012Y0022048D01*
X0140108Y0019588D02*
X0140618Y0019588D01*
X0147982Y0019588D02*
X0148492Y0019588D01*
X0133562Y0013194D02*
X0131973Y0013194D01*
X0130954Y0021187D02*
X0130945Y0021187D01*
X0130214Y0021926D02*
X0130214Y0021926D01*
X0129397Y0022785D02*
X0119537Y0022785D01*
X0121136Y0021187D02*
X0126159Y0021187D01*
X0124329Y0019588D02*
X0121200Y0019588D01*
X0121200Y0017990D02*
X0123667Y0017990D01*
X0123583Y0016391D02*
X0120114Y0016391D01*
X0164300Y0034300D02*
X0171800Y0026800D01*
X0173178Y0026800D01*
X0177902Y0029950D02*
X0177902Y0043198D01*
X0176800Y0044300D01*
X0184300Y0029300D02*
X0178650Y0023650D01*
X0177902Y0023650D01*
X0126044Y0078733D02*
X0117100Y0078733D01*
X0117100Y0080332D02*
X0125051Y0080332D01*
X0124800Y0081930D02*
X0117100Y0081930D01*
X0117100Y0083529D02*
X0125143Y0083529D01*
X0126305Y0085127D02*
X0117100Y0085127D01*
X0111500Y0085127D02*
X0107578Y0085127D01*
X0108663Y0083529D02*
X0111500Y0083529D01*
X0111500Y0081930D02*
X0109000Y0081930D01*
X0108771Y0080332D02*
X0111500Y0080332D01*
X0111500Y0078733D02*
X0107838Y0078733D01*
X0079077Y0099514D02*
X0022023Y0099514D01*
X0022500Y0101112D02*
X0078600Y0101112D01*
X0078600Y0102711D02*
X0022500Y0102711D01*
X0021930Y0104309D02*
X0079170Y0104309D01*
X0080347Y0105908D02*
X0020753Y0105908D01*
X0019893Y0126688D02*
X0111500Y0126688D01*
X0111500Y0125090D02*
X0107616Y0125090D01*
X0108678Y0123491D02*
X0111500Y0123491D01*
X0111500Y0121893D02*
X0109000Y0121893D01*
X0108755Y0120294D02*
X0111500Y0120294D01*
X0111500Y0118696D02*
X0107801Y0118696D01*
X0107392Y0128287D02*
X0111500Y0128287D01*
X0111500Y0129885D02*
X0108586Y0129885D01*
X0109000Y0131484D02*
X0111500Y0131484D01*
X0111500Y0133082D02*
X0108848Y0133082D01*
X0108024Y0134681D02*
X0111500Y0134681D01*
X0111500Y0136279D02*
X0105606Y0136279D01*
X0105315Y0137200D02*
X0107006Y0137900D01*
X0108300Y0139194D01*
X0109000Y0140885D01*
X0109000Y0142715D01*
X0108300Y0144406D01*
X0107006Y0145700D01*
X0105315Y0146400D01*
X0098285Y0146400D01*
X0096594Y0145700D01*
X0095300Y0144406D01*
X0094600Y0142715D01*
X0094600Y0140885D01*
X0095300Y0139194D01*
X0096594Y0137900D01*
X0098285Y0137200D01*
X0105315Y0137200D01*
X0106952Y0137878D02*
X0111500Y0137878D01*
X0111500Y0139476D02*
X0108417Y0139476D01*
X0109000Y0141075D02*
X0111500Y0141075D01*
X0111500Y0142673D02*
X0109000Y0142673D01*
X0108355Y0144272D02*
X0111500Y0144272D01*
X0111500Y0145870D02*
X0106593Y0145870D01*
X0105964Y0147469D02*
X0111500Y0147469D01*
X0111500Y0149068D02*
X0108173Y0149068D01*
X0108300Y0149194D02*
X0109000Y0150885D01*
X0109000Y0152715D01*
X0108300Y0154406D01*
X0107006Y0155700D01*
X0105315Y0156400D01*
X0098285Y0156400D01*
X0096594Y0155700D01*
X0095300Y0154406D01*
X0094600Y0152715D01*
X0094600Y0150885D01*
X0095300Y0149194D01*
X0096594Y0147900D01*
X0098285Y0147200D01*
X0105315Y0147200D01*
X0107006Y0147900D01*
X0108300Y0149194D01*
X0108909Y0150666D02*
X0111500Y0150666D01*
X0111500Y0152265D02*
X0109000Y0152265D01*
X0108524Y0153863D02*
X0111500Y0153863D01*
X0111500Y0155462D02*
X0107244Y0155462D01*
X0107764Y0158659D02*
X0111500Y0158659D01*
X0111500Y0160257D02*
X0108740Y0160257D01*
X0109000Y0161856D02*
X0111500Y0161856D01*
X0111500Y0163454D02*
X0108694Y0163454D01*
X0107653Y0165053D02*
X0111500Y0165053D01*
X0111500Y0166651D02*
X0019983Y0166651D01*
X0021019Y0168250D02*
X0043845Y0168250D01*
X0042246Y0169848D02*
X0021949Y0169848D01*
X0022300Y0171447D02*
X0042200Y0171447D01*
X0042200Y0173045D02*
X0022171Y0173045D01*
X0021524Y0174644D02*
X0043138Y0174644D01*
X0044737Y0176242D02*
X0020043Y0176242D01*
X0020902Y0177841D02*
X0048881Y0177841D01*
X0050479Y0179439D02*
X0021992Y0179439D01*
X0022500Y0181038D02*
X0052078Y0181038D01*
X0053676Y0182636D02*
X0022500Y0182636D01*
X0021961Y0184235D02*
X0055361Y0184235D01*
X0058217Y0187605D02*
X0058917Y0187096D01*
X0059689Y0186703D01*
X0060512Y0186435D01*
X0061367Y0186300D01*
X0061600Y0186300D01*
X0061600Y0191600D01*
X0056300Y0191600D01*
X0056300Y0191367D01*
X0056435Y0190512D01*
X0056703Y0189689D01*
X0057096Y0188917D01*
X0057605Y0188217D01*
X0058217Y0187605D01*
X0058455Y0187432D02*
X0045493Y0187432D01*
X0045029Y0186968D02*
X0046632Y0188571D01*
X0047500Y0190666D01*
X0047500Y0192934D01*
X0046632Y0195029D01*
X0045029Y0196632D01*
X0042934Y0197500D01*
X0040666Y0197500D01*
X0038571Y0196632D01*
X0036968Y0195029D01*
X0036100Y0192934D01*
X0036100Y0190666D01*
X0036968Y0188571D01*
X0038571Y0186968D01*
X0040666Y0186100D01*
X0042934Y0186100D01*
X0045029Y0186968D01*
X0046822Y0189030D02*
X0057038Y0189030D01*
X0056417Y0190629D02*
X0047484Y0190629D01*
X0047500Y0192227D02*
X0056300Y0192227D01*
X0056300Y0192233D02*
X0056300Y0192000D01*
X0061600Y0192000D01*
X0061600Y0197300D01*
X0061367Y0197300D01*
X0060512Y0197165D01*
X0059689Y0196897D01*
X0058917Y0196504D01*
X0058217Y0195995D01*
X0057605Y0195383D01*
X0057096Y0194683D01*
X0056703Y0193911D01*
X0056435Y0193088D01*
X0056300Y0192233D01*
X0056675Y0193826D02*
X0047131Y0193826D01*
X0046237Y0195424D02*
X0057646Y0195424D01*
X0060076Y0197023D02*
X0044086Y0197023D01*
X0039514Y0197023D02*
X0019086Y0197023D01*
X0021237Y0195424D02*
X0037363Y0195424D01*
X0036469Y0193826D02*
X0022131Y0193826D01*
X0022500Y0192227D02*
X0036100Y0192227D01*
X0036115Y0190629D02*
X0022484Y0190629D01*
X0021822Y0189030D02*
X0036778Y0189030D01*
X0038107Y0187432D02*
X0020493Y0187432D01*
X0020828Y0185833D02*
X0139000Y0185833D01*
X0139000Y0184235D02*
X0103239Y0184235D01*
X0104924Y0182636D02*
X0139000Y0182636D01*
X0139000Y0181038D02*
X0106522Y0181038D01*
X0108121Y0179439D02*
X0139000Y0179439D01*
X0139000Y0177841D02*
X0109719Y0177841D01*
X0111318Y0176242D02*
X0127904Y0176242D01*
X0125538Y0174644D02*
X0112916Y0174644D01*
X0114515Y0173045D02*
X0124737Y0173045D01*
X0124600Y0171447D02*
X0116113Y0171447D01*
X0117100Y0169848D02*
X0125029Y0169848D01*
X0124290Y0168250D02*
X0117100Y0168250D01*
X0117100Y0166651D02*
X0122691Y0166651D01*
X0121093Y0165053D02*
X0117100Y0165053D01*
X0117100Y0163454D02*
X0119494Y0163454D01*
X0117896Y0161856D02*
X0117100Y0161856D01*
X0111500Y0157060D02*
X0084600Y0157060D01*
X0084600Y0155462D02*
X0096356Y0155462D01*
X0095076Y0153863D02*
X0084600Y0153863D01*
X0084600Y0152265D02*
X0094600Y0152265D01*
X0094691Y0150666D02*
X0084600Y0150666D01*
X0084600Y0149068D02*
X0095427Y0149068D01*
X0097636Y0147469D02*
X0084600Y0147469D01*
X0084600Y0145870D02*
X0097007Y0145870D01*
X0095245Y0144272D02*
X0084675Y0144272D01*
X0085531Y0142673D02*
X0094600Y0142673D01*
X0094600Y0141075D02*
X0085581Y0141075D01*
X0084824Y0139476D02*
X0095183Y0139476D01*
X0096648Y0137878D02*
X0074600Y0137878D01*
X0074600Y0139476D02*
X0078776Y0139476D01*
X0078019Y0141075D02*
X0074600Y0141075D01*
X0074600Y0142673D02*
X0078069Y0142673D01*
X0078925Y0144272D02*
X0074600Y0144272D01*
X0074600Y0145870D02*
X0079000Y0145870D01*
X0079000Y0147469D02*
X0074600Y0147469D01*
X0074600Y0149068D02*
X0079000Y0149068D01*
X0079000Y0150666D02*
X0075423Y0150666D01*
X0075581Y0152265D02*
X0079000Y0152265D01*
X0079000Y0153863D02*
X0075038Y0153863D01*
X0072841Y0155462D02*
X0079000Y0155462D01*
X0079000Y0157060D02*
X0030581Y0157060D01*
X0030338Y0155462D02*
X0070759Y0155462D01*
X0068562Y0153863D02*
X0029600Y0153863D01*
X0029600Y0152265D02*
X0068019Y0152265D01*
X0068177Y0150666D02*
X0029600Y0150666D01*
X0031800Y0146800D02*
X0031800Y0131800D01*
X0034600Y0134681D02*
X0069000Y0134681D01*
X0069000Y0136279D02*
X0034600Y0136279D01*
X0034600Y0137878D02*
X0069000Y0137878D01*
X0069000Y0139476D02*
X0034600Y0139476D01*
X0034600Y0141075D02*
X0069000Y0141075D01*
X0069000Y0142673D02*
X0034600Y0142673D01*
X0034619Y0144272D02*
X0069000Y0144272D01*
X0069000Y0145870D02*
X0035508Y0145870D01*
X0035581Y0147469D02*
X0069000Y0147469D01*
X0069000Y0149068D02*
X0034880Y0149068D01*
X0026800Y0141800D02*
X0026800Y0156800D01*
X0028334Y0160257D02*
X0078346Y0160257D01*
X0079000Y0158659D02*
X0030123Y0158659D01*
X0035361Y0133082D02*
X0068239Y0133082D01*
X0068019Y0131484D02*
X0035581Y0131484D01*
X0035100Y0129885D02*
X0068500Y0129885D01*
X0071800Y0131800D02*
X0071800Y0151800D01*
X0081800Y0161800D02*
X0081800Y0141800D01*
X0074600Y0136279D02*
X0097994Y0136279D01*
X0095576Y0134681D02*
X0074600Y0134681D01*
X0075361Y0133082D02*
X0094752Y0133082D01*
X0094600Y0131484D02*
X0075581Y0131484D01*
X0075100Y0129885D02*
X0095014Y0129885D01*
X0114300Y0154300D02*
X0131800Y0171800D01*
X0141800Y0171800D01*
X0141800Y0189300D01*
X0136800Y0194300D01*
X0141400Y0193826D02*
X0206650Y0193826D01*
X0206650Y0195424D02*
X0141400Y0195424D01*
X0140583Y0197023D02*
X0206650Y0197023D01*
X0206650Y0198621D02*
X0138984Y0198621D01*
X0134616Y0198621D02*
X0128984Y0198621D01*
X0128705Y0198900D02*
X0131400Y0196205D01*
X0131400Y0192395D01*
X0128705Y0189700D01*
X0124895Y0189700D01*
X0122200Y0192395D01*
X0122200Y0196205D01*
X0124895Y0198900D01*
X0128705Y0198900D01*
X0130583Y0197023D02*
X0133017Y0197023D01*
X0132200Y0195424D02*
X0131400Y0195424D01*
X0131400Y0193826D02*
X0132200Y0193826D01*
X0132367Y0192227D02*
X0131233Y0192227D01*
X0129634Y0190629D02*
X0133966Y0190629D01*
X0138110Y0189030D02*
X0066562Y0189030D01*
X0066504Y0188917D02*
X0066897Y0189689D01*
X0067165Y0190512D01*
X0067300Y0191367D01*
X0067300Y0191600D01*
X0062000Y0191600D01*
X0062000Y0192000D01*
X0061600Y0192000D01*
X0061600Y0191600D01*
X0062000Y0191600D01*
X0062000Y0186300D01*
X0062233Y0186300D01*
X0063088Y0186435D01*
X0063911Y0186703D01*
X0064683Y0187096D01*
X0065383Y0187605D01*
X0065995Y0188217D01*
X0066504Y0188917D01*
X0067183Y0190629D02*
X0123966Y0190629D01*
X0122367Y0192227D02*
X0118733Y0192227D01*
X0118705Y0192200D02*
X0121400Y0194895D01*
X0121400Y0198705D01*
X0118705Y0201400D01*
X0114895Y0201400D01*
X0112200Y0198705D01*
X0112200Y0194895D01*
X0114895Y0192200D01*
X0118705Y0192200D01*
X0120331Y0193826D02*
X0122200Y0193826D01*
X0122200Y0195424D02*
X0121400Y0195424D01*
X0121400Y0197023D02*
X0123017Y0197023D01*
X0124616Y0198621D02*
X0121400Y0198621D01*
X0119885Y0200220D02*
X0206650Y0200220D01*
X0206650Y0192227D02*
X0142832Y0192227D01*
X0144280Y0190629D02*
X0206650Y0190629D01*
X0206650Y0189030D02*
X0144600Y0189030D01*
X0144600Y0187432D02*
X0206650Y0187432D01*
X0206650Y0185833D02*
X0144600Y0185833D01*
X0144600Y0184235D02*
X0206650Y0184235D01*
X0206650Y0182636D02*
X0144600Y0182636D01*
X0144600Y0181038D02*
X0206650Y0181038D01*
X0206650Y0179439D02*
X0144600Y0179439D01*
X0144600Y0177841D02*
X0206650Y0177841D01*
X0206650Y0176242D02*
X0144600Y0176242D01*
X0145462Y0174644D02*
X0206650Y0174644D01*
X0206650Y0173045D02*
X0146400Y0173045D01*
X0146400Y0171447D02*
X0206650Y0171447D01*
X0206650Y0169848D02*
X0146354Y0169848D01*
X0144755Y0168250D02*
X0206650Y0168250D01*
X0206650Y0166651D02*
X0130611Y0166651D01*
X0131800Y0165053D02*
X0131800Y0165053D01*
X0131800Y0163454D02*
X0131800Y0163454D01*
X0131800Y0161856D02*
X0131800Y0161856D01*
X0131800Y0161800D02*
X0131800Y0157400D01*
X0131800Y0161800D01*
X0131800Y0161800D01*
X0131800Y0160257D02*
X0131800Y0160257D01*
X0131800Y0158659D02*
X0131800Y0158659D01*
X0137481Y0158659D02*
X0138719Y0158659D01*
X0141800Y0158659D02*
X0141800Y0158659D01*
X0141800Y0160257D02*
X0141800Y0160257D01*
X0141800Y0161856D02*
X0141800Y0161856D01*
X0141800Y0163454D02*
X0141800Y0163454D01*
X0141800Y0165053D02*
X0141800Y0165053D01*
X0138830Y0165053D02*
X0137370Y0165053D01*
X0137355Y0168250D02*
X0138845Y0168250D01*
X0138138Y0174644D02*
X0138062Y0174644D01*
X0139000Y0176242D02*
X0135696Y0176242D01*
X0139000Y0187432D02*
X0065145Y0187432D01*
X0062000Y0187432D02*
X0061600Y0187432D01*
X0061600Y0189030D02*
X0062000Y0189030D01*
X0062000Y0190629D02*
X0061600Y0190629D01*
X0062000Y0192000D02*
X0067300Y0192000D01*
X0067300Y0192233D01*
X0067165Y0193088D01*
X0066897Y0193911D01*
X0066504Y0194683D01*
X0065995Y0195383D01*
X0065383Y0195995D01*
X0064683Y0196504D01*
X0063911Y0196897D01*
X0063088Y0197165D01*
X0062233Y0197300D01*
X0062000Y0197300D01*
X0062000Y0192000D01*
X0062000Y0192227D02*
X0061600Y0192227D01*
X0061600Y0193826D02*
X0062000Y0193826D01*
X0062000Y0195424D02*
X0061600Y0195424D01*
X0061600Y0197023D02*
X0062000Y0197023D01*
X0063524Y0197023D02*
X0072400Y0197023D01*
X0072400Y0196800D02*
X0076800Y0196800D01*
X0081200Y0196800D01*
X0081200Y0198623D01*
X0078623Y0201200D01*
X0076800Y0201200D01*
X0076800Y0196800D01*
X0076800Y0196800D01*
X0076800Y0196800D01*
X0081200Y0196800D01*
X0081200Y0194977D01*
X0078623Y0192400D01*
X0076800Y0192400D01*
X0076800Y0196800D01*
X0076800Y0196800D01*
X0076800Y0196800D01*
X0076800Y0201200D01*
X0074977Y0201200D01*
X0072400Y0198623D01*
X0072400Y0196800D01*
X0072400Y0194977D01*
X0074977Y0192400D01*
X0076800Y0192400D01*
X0076800Y0196800D01*
X0072400Y0196800D01*
X0072400Y0195424D02*
X0065954Y0195424D01*
X0066925Y0193826D02*
X0073552Y0193826D01*
X0076800Y0193826D02*
X0076800Y0193826D01*
X0076800Y0195424D02*
X0076800Y0195424D01*
X0076800Y0197023D02*
X0076800Y0197023D01*
X0076800Y0198621D02*
X0076800Y0198621D01*
X0076800Y0200220D02*
X0076800Y0200220D01*
X0079603Y0200220D02*
X0113714Y0200220D01*
X0112200Y0198621D02*
X0081200Y0198621D01*
X0081200Y0197023D02*
X0112200Y0197023D01*
X0112200Y0195424D02*
X0081200Y0195424D01*
X0080048Y0193826D02*
X0113269Y0193826D01*
X0114867Y0192227D02*
X0067300Y0192227D01*
X0072400Y0198621D02*
X0013800Y0198621D01*
X0013800Y0197023D02*
X0014514Y0197023D01*
X0013800Y0200220D02*
X0073997Y0200220D01*
X0108571Y0169848D02*
X0109792Y0169848D01*
X0111391Y0168250D02*
X0107355Y0168250D01*
X0094906Y0163454D02*
X0085207Y0163454D01*
X0085581Y0161856D02*
X0094600Y0161856D01*
X0094860Y0160257D02*
X0085254Y0160257D01*
X0084600Y0158659D02*
X0095836Y0158659D01*
X0144881Y0158659D02*
X0206650Y0158659D01*
X0206650Y0160257D02*
X0146200Y0160257D01*
X0146200Y0161856D02*
X0206650Y0161856D01*
X0206650Y0163454D02*
X0146200Y0163454D01*
X0144770Y0165053D02*
X0206650Y0165053D01*
X0206650Y0147469D02*
X0205009Y0147469D01*
D20*
X0184300Y0111800D03*
X0164300Y0101800D03*
X0176800Y0044300D03*
X0081800Y0141800D03*
X0071800Y0151800D03*
X0081800Y0161800D03*
X0071800Y0131800D03*
X0031800Y0131800D03*
X0026800Y0141800D03*
X0031800Y0146800D03*
X0026800Y0156800D03*
M02*
